<?xml version="1.0" encoding="utf-8"?>

<!DOCTYPE svg PUBLIC "-//W3C//DTD SVG 1.1//EN" "http://www.w3.org/Graphics/SVG/1.1/DTD/svg11.dtd">
<svg version="1.1" id="Layer_1" xmlns="http://www.w3.org/2000/svg" xmlns:xlink="http://www.w3.org/1999/xlink" x="0px" y="0px"
	 viewBox="0 0 1511.661 1654.692" enable-background="new 0 0 1511.661 1654.692" xml:space="preserve">
<g>
	<path d="M988.527,66.724c22.59-14.557,37.429-21.849,112.641,16.708c68.098,34.878,103.274,87.8,108.525,93.401
		c0.148,0.409,0.453,1.218,0.6,1.619c5.007,4.916,13.99,21.364,14.533,22.365c7.693,11.087,11.8,24.07,16.195,36.697
		c9.132,38.91-0.402,42.705-21.207,70.383c-0.13,0.426-0.374,1.271-0.505,1.688c-5.821,6.152-20.688,29.751-35.018,44.372
		c-10.64,11.266,20.779,24.964,37.881,67.868c3.603,7.614,2.411,17.631-3.733,23.6c-11.727,9.731-36.806,0.696-47.235-1.906
		c-1.535-1.208-19.086-10.743-24.175-11.765c-0.553,5.992-4.474,18.361-16.717,34.217c-2.924,3.899-9.242,5.465-9.146,11.2
		c13.178,7.003,65.592-1.977,93.557,65.414c1.401,4.342,2.323,8.876,4.429,12.958c1.738,3.358,5.405,26.568,7.38,30.693
		c4.707,30.277,7.354,10.351,7.562,107.742c1.641,18.856-0.86,15.752-0.104,29.666c0.174,4.273-1.331,8.563-0.226,12.801
		c0.809,4.221,1.453,8.937-0.653,12.897c-2.114,25.571-10.001,48.269-13.088,67.999c-3.376,3.211-1.157,8.363-3.072,12.253
		c-1.967,4.29-3.559,9.016-2.924,13.802c7.464,26.74-5.335,17.608-7.527,35.984c-0.014,0.243-4.232,19.947-5.63,24.34
		c-1.497,4.569-0.853,9.459-1.671,14.15c-0.718,5.462-7.041,30.025-7.049,38.055c0.241,10.235,16.312,24.196,2.123,62.125
		c-1.68,7.319-0.574,15.107-2.976,22.278c-9.523,22.761,4.17,21.037,27.064,50.951c41.234,59.463,51.621,54.716,146.432,209.557
		c0.002,0.003,42.075,68.591,42.075,68.591c2.763,4.754,14.691,29.584,19.397,37.028c4.247,6.396,5.935,14.559,4.177,22.078
		c-1.366,5.656-0.774,11.687-2.898,17.187c-1.379,3.572-4.037,4.873-6.489,7.361c-16.383,16.625-40.036,64.971-51.588,93.516
		c-2.354,5.817-1.862,12.576-6.024,17.655c-0.157,0.427-0.479,1.271-0.635,1.697c-1.262,1.679-2.497,3.394-3.768,5.082
		c-0.148,0.461-0.426,1.401-0.574,1.871c-2.167,2.75-4.238,5.63-5.578,8.911c-0.731,0.218-1.453,0.453-2.149,0.722
		c-1.453,3.699-12.296,20.729-18.71,25.706c-1.288-0.287-2.567-0.461-3.768-0.905c-3.139-2.69-6.05-14.171-12.061-21.973
		c-1.006-3.298-15.456-33.976-16.447-35.461c-3.475-18.322-29.022-73.634-38.559-88.301c-0.104-0.505-0.313-1.514-0.418-2.019
		c-0.313-0.296-0.922-0.888-1.227-1.183c-1.114-4.351-2.732-8.633-5.274-12.349c-1.327-0.238-19.698,3.869-27.638,7.771
		c-1.258,22.38,5.039,16.32,8.163,48.41c0.731,7.649,3.237,15.055,3.281,22.782c0.009,8.841,0.261,17.761,2.123,26.446
		c0.818,0.679,1.653,1.384,2.506,2.106c2.497,8.015,1.244,16.534-0.313,24.601c-3.158,12.49,3.481,29.65,0.461,38.116
		c-2.297,7.266-4.107,15.081-9.198,21.016c-0.113,0.505-0.348,1.532-0.47,2.045c-0.427,0.122-1.279,0.365-1.706,0.487
		c-0.774,2.036-2.907,4.186-1.453,6.414c1.41,2.593,1.914,5.517,1.488,8.45c-598.691,0-542.864,2.772-555.505-6.213
		c-5.137-3.562-0.733-9.031,5.099-33.068c10.156-45.964,25.826-83.903,36.967-129.88c4.958-32.524,1.021-145.051,0.522-146.763
		c-0.574-2.411-2.637-4.29-2.663-6.831c0.026-3.55,0.043-7.092-0.357-10.617c-10.035,0.722-4.226,2.28-13.749,0.009
		c-2.175-10.391,1.409-13.414,3.403-26.246c9.946-63.62,15.554-26.963,14.193-189.499c-1.628-50.034-21.411-153.814-25.115-165.707
		c-5.387,1.993-11.026,3.559-15.847,6.753c-0.94,0.174-1.862,0.348-2.776,0.54c-0.313,0.357-0.948,1.07-1.262,1.427
		c-0.574,0.044-1.74,0.122-2.315,0.165c-0.339,0.313-1.001,0.94-1.34,1.244c-8.254,1.775-34.574,15.731-41.945,18.101
		c-0.366,0.27-1.096,0.809-1.462,1.079c-3.812,0.827-7.301,2.689-10.164,5.317c-0.592,0.122-1.767,0.348-2.35,0.47
		c-0.357,0.296-1.062,0.879-1.41,1.175c-3.925,0.862-7.292,3.089-10.704,5.091c-5.295,1.458-4.811,3.062-23.461,12.183
		c-57.584,28.164-144.15,21.291-155.508,16.404c-22.371-4.877-37.356-46.811-103.617-106.097
		c-96.861-93.292-96.337-75.184-87.405-97.926c-1.453-2.045-2.689-4.247-3.411-6.648c11.334-14.419,16.595-26.119,34.261-56.12
		c1.967-2.941,1.236-6.605,1.54-9.912c0.383-3.681-1.54-6.953-2.48-10.373c-1.984-7.171-3.081-14.724-6.683-21.32
		c-1.925-3.672-8.274-8.757-7.432-27.455c0.174-5.961,2.732-11.443,3.899-17.222c-2.689-3.951-5.03-8.136-7.075-12.453
		c-2.01-4.229-2.471-9.155-5.413-12.931c-10.854-14.517-15.449-16.525-34.147-57.234c-0.766-1.157-1.401-3.237-3.176-2.672
		c-5.117,1.044-9.694,4.064-14.985,4.395c-10.801,1.431-13.18-14.272-17.152-22.069c-2.599-6.011-15.479-3.891-19.078-4.337
		c-45.496-5.647-70.762-14.884-70.884-61.671c-0.139-53.501,10.941-70.644,104.835-137.336c5.596-3.96,9.912-9.381,15.394-13.471
		c10.126-7.42,2.033-15.901,8.546-25.202c1.262-1.358,3.333-0.975,4.978-1.384c1.653,2.428,2.254,5.291,2.55,8.171
		c69.264-88.704,34.071-81.986,27.064-101.616c-0.862-3.168,1.958-6.701,5.282-6.187c16.994,3.277,126.965,71.503,128.184,77.606
		c0.874,4.375-4.435,7.93-8.828,7.154c-3.754-0.663-6.111-3.896-9.464-5.552c-14.506-7.168-43.171,24.159-49.742,44.92
		c-4.331,13.088-15.392,21.654-9.355,32.738c4.012,7.91,9.459,14.994,13.384,22.948c6.092-1.244,11.443-4.986,15.42-9.642
		c3.725-1.575,7.292-3.49,10.417-6.092c-0.844-5.891-6.379-9.303-9.216-14.158c-0.035-0.47-0.104-1.418-0.139-1.888
		c3.942-4.856,10.46-5.874,15.446-9.242c5.9-3.899,12.192-7.145,18.153-10.947c1.009-0.226,2.028-0.435,3.054-0.644
		c5.395-4.621,11.217-9.764,18.562-10.608c4.96-24.97,6.673-16.861,17.335-23.4c2.176-2.28,2.637-5.926,5.491-7.658
		c5.587-3.594,12.227-4.986,18.118-7.98c3.731-7.76,21.651-20.207,38.142-19.032c5.413-11.766,3.516-9.172,21.825-15.794
		c8.313-2.732,13.161-7.411,33.625,8.633c2.176-0.801,4.342-1.645,6.483-2.55c1.528-8.991,3.675-7.089,6.248-7.388
		c0.905,1.183,1.828,2.35,2.75,3.524c1.845-0.714,4.081-1.053,5.343-2.732c2.072-4.523-1.027-8.474,8.885-9.529
		c0.714,0.6,1.436,1.192,2.158,1.793c3.498-2.967,7.127-7.197,12.279-6.1c3.211-0.296,4.351,2.898,5.099,5.378
		c8.643-6.779,2.807-8.858,37.628-17.37c-1.636-4.386-2.776-9.52-0.801-13.967c4.448-9.104,51.061-2.493,78.51,9.711
		c14.629,6.504,50.737,27.231,50.613,43.294c-2.149,0.609-4.308,1.192-6.474,1.68c-0.366,0.566-0.714,1.149-1.053,1.723
		c4.647,2.393,8.398,6.257,13.349,8.145c0.879,0.722,1.523,2.089,2.846,1.993c0.383-1.21,0.705-2.437,1.036-3.655
		c3.359-0.426,7.014-1.949,10.242-0.191c5.163,2.477,30.34,20.035,33.312,22.895c0.418,0.026,1.262,0.07,1.688,0.087
		c1.271-4.377,4.238-7.954,8.241-10.129c-1.224-5.838-7.052-6.251-9.807-13.61c-6.101-19.097,7.934-30.979,17.213-34.6
		c7.867-32.841,16.149-33.647,28.073-33.817c8.13,0.366,14.202-14.403,13.836-17.413c-4.2-7.025-49.442-46.867-41.727-63.465
		c4.925-13.61,42.146-4.124,53.362-0.313c23.031,6.635,37.819,17.02,44.886,18.701c5.343-5.23,11.557-9.503,16.63-15.011
		C930.234,119.814,955.508,88.917,988.527,66.724 M618.692,222.302c-0.017,1.001-0.026,1.993-0.026,2.994
		c0.87,0.522,1.74,1.053,2.628,1.593c5.717-0.47,11.426-1.314,17.196-1.088c5.303,0.368,1.249-3.341,18.275,1.706l0.148-1.305
		c0.731,0.07,2.193,0.218,2.915,0.287C653.495,220.546,624.498,220.902,618.692,222.302 M668.129,230.882
		c0.017,1.105,0.052,2.21,0.087,3.324c32.082,17.151,27.091,20.322,33.686,16.691c0.052-1.688,0.183-3.385,0.035-5.065
		c-0.77-1.124-14.603-8.638-15.603-9.155c-2.924-1.593-6.553-1.149-9.276-3.176C674.404,231.752,671.184,231.378,668.129,230.882
		 M635.879,251.158c0.714,3.081,0.74,6.257,0.305,9.381c-0.731,0.557-1.453,1.123-2.167,1.68c-0.078,0.557-0.252,1.662-0.331,2.219
		c-0.54,0.148-1.619,0.444-2.158,0.6c-0.244-0.383-0.74-1.14-0.992-1.523c-0.183-1.288-0.061-2.854-1.592-3.35
		c-1.984,0.757-2.985,2.733-4.142,4.36c-0.975,0.305-1.932,0.609-2.889,0.914c0.113,0.844,0.244,1.697,0.392,2.55
		c-0.374,2.158-0.653,4.334-0.983,6.501c-1.131,0.757-2.149,1.653-2.907,2.785c-1.836,0.853-3.777,1.384-5.648,2.115
		c-0.975,0.844-1.288,2.21-1.897,3.307c-2.872,1.21-6.144,1.462-8.641,3.472c-44.644,29.882-41.89,27.879-42.815,33.007
		c-1.532,0.339-3.063,0.67-4.586,1.018c1.236,6.431,3.716,12.522,5.543,18.788c1.836,5.935,2.82,12.096,4.351,18.109
		c0.87,4.038,4.168,6.77,6.405,10.042c1.98,2.385,9.589,14.886,12.113,16.665c7.741,6.118,28.471,31.758,35.801,38.89
		c2.802,2.123,6.353,2.907,9.242,4.908c3.098,1.993,5.326,5.012,8.224,7.258c73.719,58.687,39.256,29.24,68.512,60.202
		c5.404,3.298,12.235,1.706,18.048,3.768c4.377,2.384,7.545,6.396,11.191,9.712c4.207,4.207,12.712,7.847,14.881,26.246
		c0,5.506,13.49,3.939,25.924,5.7c3.176,0.905,3.002,4.969,4.273,7.423c2.811,1.619,6.37,2.663,7.623,6.031
		c5.195-2.55,10.112-5.7,15.681-7.414c8.955-2.924,16.404-9.033,25.236-12.218c12.747-5.392,13.988-3.074,20.877-13.184
		c3.646-7.153,9.416-13.323,16.534-17.109c-18.604-41.943,5.658-50.968-26.82-61.063c-13.811-6.569-30.837-3.611-53.762-16.143
		c-27.689-11.839-22.294-24.801-24.401-31.902c-0.774-5.535,1.827-10.582,3.533-15.647c2.149-4.203,6.518-7.066,7.536-11.861
		c0.574-2.811,2.567-5.622,1.305-8.519c-0.87-2.21-0.322-4.56-0.165-6.831c-0.548-0.139-1.627-0.418-2.176-0.566
		c0.017-2.323,0.4-4.612,0.992-6.849c1.227-1.923,2.323-3.933,3.498-5.891c1.68-1.758,4.438-3.698,3.429-6.509
		c-4.899-2.506-10.077-4.56-15.351-6.126c-3.115,3.498-7.928,4.038-11.931,5.961c-1.488,1.532-2.611,3.359-3.864,5.073
		c-0.479-0.139-1.445-0.426-1.932-0.566c-0.513-3.255,0.409-6.344,2.045-9.129c0.731-0.27,1.479-0.54,2.237-0.792
		c0.513-1.967,1.914-3.777,1.836-5.848c-2.332-2.115-5.404-3.307-8.528-3.463c-1.61,1.714-3.638,2.933-5.778,3.864
		c-0.252,1.07-0.479,2.141-0.696,3.229c-4.908,2.994-11.078-1.114-13.427-5.439c1.593-3.081,5.848-2.411,8.763-2.863
		c0.279-2.089,1.793-4.83-0.305-6.396c-1.836-2.463-6.3-2.524-6.509-6.057c3.617-5.131,5.099-6.001,3.707-7.754
		c-2.767-2.471-6.492-3.394-9.546-5.404c-1.662-1.505-2.541-3.794-4.647-4.795C647.209,247.345,643.795,251.011,635.879,251.158
		 M711.431,253.691c-0.905,2.689-0.714,5.552,0.322,8.18c3.046,1.732,5.926,4.499,9.712,4.038c-0.235-0.548-0.714-1.627-0.957-2.167
		C721.202,262.494,720.369,252.523,711.431,253.691 M592.934,279.319c-1,0.653-24.229,16.201-25.254,20.668
		c3.908-0.382,27.5-14.345,30.24-19.241C596.406,279.928,594.752,278.187,592.934,279.319 M280.142,366.88
		c-0.862,4.299,3.046,7.284,6.509,8.859c0.627,3.385-0.392,7.031-3.864,8.38c0.044,0.322,0.122,0.957,0.157,1.279
		c2.706,1.914,1.592,5.3,1.497,8.093c5.169-0.313,11.783,0.278,14.411,5.508c1.384-0.357,2.75-0.801,4.081-1.349
		c1.018-2.097,2.332-4.247,4.891-4.56c-2.907-11.473-15.995-18.081-15.124-37.846C286.999,357.107,282.848,361.702,280.142,366.88
		 M343.912,356.716c-0.061,0.931-0.113,1.854-0.157,2.793c2.367,2.689,3.89,6.126,6.683,8.424c2.48,0.453,4.482-1.592,6.57-2.619
		c3.011-1.453,3.559-5.187,6.266-7.005c-0.374-1.149-0.766-2.289-1.131-3.42C344.374,355.949,354.661,356.297,343.912,356.716
		 M334.635,359.736c1.009,3.777,4.073,6.422,6.448,9.372c1.532,2.106,4.203,2.55,6.605,2.95c-0.122-1.218-0.235-2.419-0.357-3.629
		C338.496,359.113,339.636,356.118,334.635,359.736 M264.791,379.429c-4.699,4.273-9.659,8.267-14.402,12.505
		c0.052,0.679,0.165,2.036,0.226,2.715c1.184-0.191,2.367-0.383,3.559-0.566c0.218,0.348,0.653,1.036,0.879,1.384
		c4.619,0.079,14.979-9.777,16.9-13.828c-0.705-0.435-1.41-0.853-2.123-1.244c0.54-1.714,1.723-3.115,2.741-4.569
		C269.551,375.339,267.028,377.74,264.791,379.429 M272.693,376.531c-0.487,1.314-1.427,2.619-0.983,4.099
		c1.871-0.461,3.733-0.957,5.578-1.523C276.357,377.244,274.755,376.374,272.693,376.531 M425.112,390.115
		c-3.15,3.352,3.997,4.622,1.671,12.375c7.898,21.079-13.263,24.071-19.737,13.837c-1.888-2.828-1.845-6.344-2.898-9.477
		c-3.185,1.993-7.754,2.097-9.955,5.387c-0.644,3.777,4.238,5.674,4.351,9.216c0.879,3.646-5.5,4.273-6.431,1.27
		c-0.914-2.297-1.836-4.777-4.134-6.039c-4.377,0.793-35.75,24.319-61.298,41.275c-2.028,1.636-5.596,3.115-4.804,6.309
		c1.662,11.461,7.197,22.138,7.667,33.834c0.087,7.414,0.757,14.82,1.601,22.182c3.668,4.959,9.121,3.151,11.226,16.325
		c1.662,11.617,3.437,23.217,5.796,34.722c4.235,19.681-1.443,42.997,2.567,47.584c1.34,3.829,4.673,6.448,6.309,10.121
		c31.92,77.425,10.091,21.747,46.026,84.307c24.043,37.019,14.838,34.138,27.856,47.966c20.831,19.415,20.094,38.401,32.685,39.786
		c5.752,0.87,11.818,1.601,16.726,5.021c1.558,1.192,3.429-0.131,5.099-0.331c3.959-1.262,8.154-0.496,12.026,0.714
		c4.264-4.725,10.573-6.44,15.76-9.825c23.067-15.245,24.328-18.021,33.852-21.503c10.198-4.899,4.638-0.851,11.583-14.811
		c4.707-10.015,16.68-23.461,29.387-24.723c5.656,0.74,10.939,3.22,16.569,4.116c2.083,0.516,16.054-12.81,18.231-15.377
		c13.439-14.318,10.477-8.675,18.614-12.166c1.488-5.428-4.07-15.014,7.249-19.38c2.985-0.801,6.074,0.052,9.094,0.218
		c-2.82-5.256-6.77-9.825-9.294-15.246c-2.158-3.846-2.698-8.92-6.796-11.356c-25.149-17.465-27.279-32.066-40.604-41.431
		c-39.412-26.635-36.787-27.198-57.765-42.188c-48.05-35.943-45.283-31.43-47.357-36.645c-4.252-10.421,6.399-27.525,15.394-37.541
		c0.409-4.142-3.028-7.232-5.326-10.251c-14.181-19.892-36.053-30.509-25.001-59.862c0.783-2.445,2.715-4.63,2.367-7.327
		c-46.687-39.462-25.959-26.659-46.818-48.323l-0.905-0.087C431.839,384.685,428.375,387.365,425.112,390.115 M236.883,402.011
		c-2.585,2.054-4.56,4.769-6.753,7.223c-0.983,1.001-0.139,2.428-0.07,3.603c2.663-0.757,5.1-2.28,6.579-4.664
		c0.035,2.01,1.819,2.872,3.298,3.838c3.298-2.176,5.43-5.561,8.197-8.293c0.992-0.862,1.166-2.219,1.566-3.376
		c-1.044-0.061-2.097-0.104-3.142-0.139c0.139-1.349,0.209-2.706,0.27-4.047C243.201,397.529,240.129,399.948,236.883,402.011
		 M414.243,404.569c-4.751,1.784-4.673,9.564,0.035,11.322c3.446,1.784,9.79-0.017,9.32-4.673
		C423.735,405.273,419.793,403.139,414.243,404.569 M217.173,426.751c-1.227,1.314-0.226,3.507,1.036,4.412
		c1.384,0.087,2.706-0.479,3.872-1.184c3.664-1.732,1.445-6.501,1.993-9.651C221.298,421.878,219.227,424.375,217.173,426.751
		 M205.086,432.843c-9.303,3.186-8.127-2.169-19.293,6.84c-0.096,0.54-0.278,1.619-0.374,2.158c-0.444,0.165-1.34,0.487-1.784,0.653
		c-3.884,7.822-11.756,3.41-20.903,14.863c6.174,2.307,3.442-2.053,21.973,10.504c0.574-3.759,5.221-4.099,8.267-3.89
		c6.22-7.531,10.277-4.24,8.868-9.912c-0.957-0.017-1.923-0.035-2.88-0.035c-0.461-3.063-1.74-5.952-2.036-9.016
		c0.009-2.55,3.498-1.575,4.717-3.237c2.202-2.419,4.081-5.413,7.388-6.422c1.845-0.522,4.725-1.566,3.194-4.003
		C209.733,430.946,207.435,432.242,205.086,432.843 M155.222,483.89c1.505,0.244,3.011,0.496,4.516,0.74
		c-0.07,1.192-0.148,2.384-0.235,3.585c4.151,4.325,10.634,4.151,16.143,3.559c2.689-0.174,4.725-2.123,6.875-3.516
		c-0.261-0.47-0.774-1.392-1.036-1.854c-1.975,0.331-3.951,0.775-5.97,0.644c0.357-0.104,1.07-0.322,1.427-0.426
		c-1.267-8.672,4.642-4.896,0.035-11.313c0-0.505-0.009-1.523-0.009-2.028c1.462-1.253,2.889-2.637,3.185-4.638
		c-3.046,0.165-6.074,0.557-9.129,0.453c-3.229-3.916-7.771-7.614-12.871-8.197C150.932,465.885,150.975,476.902,155.222,483.89
		 M174.132,552.089c5.653,20.987,9.965,25.288,27.125,15.385c1.001-3.768-1.366-7.449-2.767-10.843
		c-4.777,0.461-8.946,3.786-13.88,2.898c-0.853-3.028,0.853-5.561,2.924-7.58c-1.096-1.418-2.236-2.793-3.376-4.16
		C180.58,548.121,176.168,548.826,174.132,552.089z"/>
</g>
</svg>
