<?xml version="1.0" encoding="UTF-8"?>
<!DOCTYPE svg PUBLIC "-//W3C//DTD SVG 1.1//EN" "http://www.w3.org/Graphics/SVG/1.1/DTD/svg11.dtd">
<svg version="1.1" xmlns="http://www.w3.org/2000/svg" xmlns:xlink="http://www.w3.org/1999/xlink" x="0" y="0" width="510" height="500" viewBox="0, 0, 510, 500">
  <g id="Layer_1">
    <path d="M8.244,361.988 L26.017,361.988 L26.017,471.7 L8.244,471.7 z" fill="#1A1919"/>
    <path d="M504.044,495.45 L487.403,495.45 L487.403,361.988 L502.706,359.498 L504.044,495.45" fill="#1A1919"/>
    <path d="M504.737,397.32 C504.698,405.918 504.63,495.416 503.116,495.45 C503.009,495.45 5.294,495.45 5.294,495.45 C5.294,495.45 4.65,491.88 4.933,442.095 C5.392,362.403 5.656,256.827 5.656,171.568 C5.656,150.313 10.958,129.551 16.408,109.053 C39.035,23.868 149.112,4.073 177.95,3.916 C241.329,3.584 284.347,42.749 292.335,52.549 C299.62,61.47 304.532,71.065 309.444,81.055 C322.159,106.915 330.392,137.207 355.499,154.722 C370.353,165.083 390.021,170.665 406.954,176.519 C417.091,180.04 427.433,182.852 437.667,186.104 C453.722,191.197 473.448,199.087 483.8,212.647 C497.14,230.137 504.269,251.915 504.269,273.882 C504.269,315.03 504.581,356.172 504.737,397.32" fill="#1A1919"/>
    <path d="M26.056,461.465 L497.276,480.508 L497.276,362.164 L17.12,362.164" fill="#FFFFFE"/>
    <path d="M25.992,463.045 L497.212,482.088 C497.64,482.105 498.062,481.945 498.371,481.648 C498.68,481.352 498.857,480.937 498.857,480.508 L498.857,362.164 C498.857,361.747 498.688,361.34 498.394,361.046 C498.1,360.751 497.692,360.582 497.276,360.582 L17.12,360.582 C16.247,360.582 15.539,361.29 15.539,362.164 C15.539,363.037 16.247,363.745 17.12,363.745 L495.695,363.744 L495.695,478.862 L26.119,459.886 C25.247,459.851 24.511,460.529 24.476,461.402 C24.441,462.274 25.12,463.01 25.993,463.045" fill="#1A1919"/>
    <path d="M18.107,361.988 L477.551,361.988 L477.551,480.508 L18.107,480.508 z" fill="#FFFFFE"/>
    <path d="M18.107,361.988 L48.742,361.988 L48.742,480.508 L18.107,480.508 z" fill="#FFFFFE"/>
    <path d="M48.741,361.988 L48.741,360.407 L18.107,360.407 C17.69,360.407 17.283,360.575 16.989,360.87 C16.694,361.164 16.526,361.571 16.526,361.988 L16.526,480.508 C16.526,480.925 16.694,481.332 16.989,481.626 C17.283,481.92 17.69,482.089 18.107,482.089 L48.741,482.089 C49.157,482.089 49.564,481.92 49.859,481.626 C50.153,481.332 50.322,480.924 50.322,480.508 L50.322,361.988 C50.322,361.572 50.153,361.164 49.859,360.87 C49.564,360.576 49.157,360.407 48.741,360.407 L48.741,361.988 L47.16,361.988 L47.16,478.927 L19.687,478.927 L19.687,363.569 L48.741,363.569 L48.741,361.988 L47.16,361.988 L48.741,361.988" fill="#1A1919"/>
    <path d="M48.741,361.988 L79.366,361.988 L79.366,480.508 L48.741,480.508 z" fill="#FFFFFE"/>
    <path d="M79.366,361.988 L79.366,360.407 L48.741,360.407 C48.325,360.407 47.917,360.575 47.623,360.87 C47.329,361.164 47.16,361.571 47.16,361.988 L47.16,480.508 C47.16,480.925 47.329,481.332 47.623,481.626 C47.917,481.92 48.325,482.089 48.741,482.089 L79.366,482.089 C79.782,482.089 80.189,481.92 80.484,481.626 C80.778,481.332 80.947,480.924 80.947,480.508 L80.947,361.988 C80.947,361.572 80.778,361.164 80.484,360.87 C80.189,360.576 79.782,360.407 79.366,360.407 L79.366,361.988 L77.785,361.988 L77.785,478.927 L50.321,478.927 L50.321,363.569 L79.366,363.569 L79.366,361.988 L77.785,361.988 L79.366,361.988" fill="#1A1919"/>
    <path d="M79.356,361.988 L109.991,361.988 L109.991,480.508 L79.356,480.508 z" fill="#FFFFFE"/>
    <path d="M109.991,361.988 L109.991,360.407 L79.356,360.407 C78.94,360.407 78.533,360.575 78.238,360.87 C77.944,361.164 77.775,361.571 77.775,361.988 L77.775,480.508 C77.775,480.925 77.944,481.332 78.238,481.626 C78.533,481.92 78.94,482.089 79.356,482.089 L109.991,482.089 C110.407,482.089 110.814,481.92 111.109,481.626 C111.403,481.332 111.572,480.924 111.572,480.508 L111.572,361.988 C111.572,361.572 111.403,361.164 111.109,360.87 C110.814,360.576 110.407,360.407 109.991,360.407 L109.991,361.988 L108.41,361.988 L108.41,478.927 L80.937,478.927 L80.937,363.569 L109.991,363.569 L109.991,361.988 L108.41,361.988 L109.991,361.988" fill="#1A1919"/>
    <path d="M109.991,361.988 L140.606,361.988 L140.606,480.508 L109.991,480.508 z" fill="#FFFFFE"/>
    <path d="M140.606,361.988 L140.606,360.407 L109.991,360.407 C109.575,360.407 109.167,360.575 108.873,360.87 C108.579,361.164 108.41,361.571 108.41,361.988 L108.41,480.508 C108.41,480.925 108.579,481.332 108.873,481.626 C109.167,481.92 109.575,482.089 109.991,482.089 L140.606,482.089 C141.022,482.089 141.43,481.92 141.724,481.626 C142.019,481.332 142.187,480.924 142.187,480.508 L142.187,361.988 C142.187,361.572 142.019,361.164 141.724,360.87 C141.43,360.576 141.022,360.407 140.606,360.407 L140.606,361.988 L139.025,361.988 L139.025,478.927 L111.571,478.927 L111.571,363.568 L140.606,363.569 L140.606,361.988 L139.025,361.988 L140.606,361.988" fill="#1A1919"/>
    <path d="M140.606,361.988 L171.241,361.988 L171.241,480.508 L140.606,480.508 z" fill="#FFFFFE"/>
    <path d="M171.241,361.988 L171.241,360.407 L140.606,360.407 C140.19,360.407 139.783,360.575 139.488,360.87 C139.194,361.164 139.025,361.571 139.025,361.988 L139.025,480.508 C139.025,480.925 139.194,481.332 139.488,481.626 C139.783,481.92 140.19,482.089 140.606,482.089 L171.241,482.089 C171.657,482.089 172.064,481.92 172.359,481.626 C172.653,481.332 172.822,480.924 172.822,480.508 L172.822,361.988 C172.822,361.572 172.653,361.164 172.359,360.87 C172.064,360.576 171.657,360.407 171.241,360.407 L171.241,361.988 L169.66,361.988 L169.66,478.927 L142.187,478.927 L142.187,363.569 L171.241,363.569 L171.241,361.988 L169.66,361.988 L171.241,361.988" fill="#1A1919"/>
    <path d="M171.231,361.988 L201.866,361.988 L201.866,480.508 L171.231,480.508 z" fill="#FFFFFE"/>
    <path d="M201.866,361.988 L201.866,360.407 L171.231,360.407 C170.815,360.407 170.408,360.575 170.113,360.87 C169.819,361.164 169.65,361.571 169.65,361.988 L169.65,480.508 C169.65,480.925 169.819,481.332 170.113,481.626 C170.408,481.92 170.815,482.089 171.231,482.089 L201.866,482.089 C202.282,482.089 202.689,481.92 202.984,481.626 C203.278,481.332 203.447,480.924 203.447,480.508 L203.447,361.988 C203.447,361.572 203.278,361.164 202.984,360.87 C202.689,360.576 202.282,360.407 201.866,360.407 L201.866,361.988 L200.285,361.988 L200.285,478.927 L172.812,478.927 L172.812,363.569 L201.866,363.569 L201.866,361.988 L200.285,361.988 L201.866,361.988" fill="#1A1919"/>
    <path d="M201.866,361.988 L232.481,361.988 L232.481,480.508 L201.866,480.508 z" fill="#FFFFFE"/>
    <path d="M232.481,361.988 L232.481,360.407 L201.866,360.407 C201.45,360.407 201.042,360.575 200.748,360.87 C200.454,361.164 200.285,361.571 200.285,361.988 L200.285,480.508 C200.285,480.925 200.454,481.332 200.748,481.626 C201.042,481.92 201.45,482.089 201.866,482.089 L232.481,482.089 C232.897,482.089 233.305,481.92 233.599,481.626 C233.894,481.332 234.062,480.924 234.062,480.508 L234.062,361.988 C234.062,361.572 233.894,361.164 233.599,360.87 C233.305,360.576 232.897,360.407 232.481,360.407 L232.481,361.988 L230.9,361.988 L230.9,478.927 L203.446,478.927 L203.446,363.568 L232.481,363.569 L232.481,361.988 L230.9,361.988 L232.481,361.988" fill="#1A1919"/>
    <path d="M232.481,361.988 L263.116,361.988 L263.116,480.508 L232.481,480.508 z" fill="#FFFFFE"/>
    <path d="M263.116,361.988 L263.116,360.407 L232.481,360.407 C232.065,360.407 231.658,360.575 231.363,360.87 C231.069,361.164 230.9,361.571 230.9,361.988 L230.9,480.508 C230.9,480.925 231.069,481.332 231.363,481.626 C231.658,481.92 232.065,482.089 232.481,482.089 L263.116,482.089 C263.532,482.089 263.939,481.92 264.234,481.626 C264.528,481.332 264.697,480.924 264.697,480.508 L264.697,361.988 C264.697,361.572 264.528,361.164 264.234,360.87 C263.939,360.576 263.532,360.407 263.116,360.407 L263.116,361.988 L261.535,361.988 L261.535,478.927 L234.062,478.927 L234.062,363.569 L263.116,363.569 L263.116,361.988 L261.535,361.988 L263.116,361.988" fill="#1A1919"/>
    <path d="M263.116,361.988 L293.741,361.988 L293.741,480.508 L263.116,480.508 z" fill="#FFFFFE"/>
    <path d="M293.741,361.988 L293.741,360.407 L263.116,360.407 C262.7,360.407 262.292,360.575 261.998,360.87 C261.704,361.164 261.535,361.571 261.535,361.988 L261.535,480.508 C261.535,480.925 261.704,481.332 261.998,481.626 C262.292,481.92 262.7,482.089 263.116,482.089 L293.741,482.089 C294.157,482.089 294.564,481.92 294.859,481.626 C295.153,481.332 295.322,480.924 295.322,480.508 L295.322,361.988 C295.322,361.572 295.153,361.164 294.859,360.87 C294.564,360.576 294.157,360.407 293.741,360.407 L293.741,361.988 L292.16,361.988 L292.16,478.927 L264.696,478.927 L264.696,363.569 L293.741,363.569 L293.741,361.988 L292.16,361.988 L293.741,361.988" fill="#1A1919"/>
    <path d="M293.741,361.988 L324.356,361.988 L324.356,480.508 L293.741,480.508 z" fill="#FFFFFE"/>
    <path d="M324.356,361.988 L324.356,360.407 L293.741,360.407 C293.325,360.407 292.917,360.575 292.623,360.87 C292.329,361.164 292.16,361.571 292.16,361.988 L292.16,480.508 C292.16,480.925 292.329,481.332 292.623,481.626 C292.917,481.92 293.325,482.089 293.741,482.089 L324.356,482.089 C324.772,482.089 325.18,481.92 325.474,481.626 C325.769,481.332 325.937,480.924 325.937,480.508 L325.937,361.988 C325.937,361.572 325.769,361.164 325.474,360.87 C325.18,360.576 324.772,360.407 324.356,360.407 L324.356,361.988 L322.775,361.988 L322.775,478.927 L295.321,478.927 L295.321,363.568 L324.356,363.569 L324.356,361.988 L322.775,361.988 L324.356,361.988" fill="#1A1919"/>
    <path d="M324.356,361.988 L355.001,361.988 L355.001,480.508 L324.356,480.508 z" fill="#FFFFFE"/>
    <path d="M355.001,361.988 L355.001,360.407 L324.356,360.407 C323.94,360.407 323.533,360.575 323.238,360.87 C322.944,361.164 322.775,361.571 322.775,361.988 L322.775,480.508 C322.775,480.925 322.944,481.332 323.238,481.626 C323.533,481.92 323.94,482.089 324.356,482.089 L355.001,482.089 C355.417,482.089 355.824,481.92 356.119,481.626 C356.413,481.332 356.582,480.924 356.582,480.508 L356.582,361.988 C356.582,361.572 356.413,361.164 356.119,360.87 C355.824,360.576 355.417,360.407 355.001,360.407 L355.001,361.988 L353.42,361.988 L353.42,478.927 L325.937,478.927 L325.937,363.568 L355.001,363.569 L355.001,361.988 L353.42,361.988 L355.001,361.988" fill="#1A1919"/>
    <path d="M355.001,361.988 L385.616,361.988 L385.616,480.508 L355.001,480.508 z" fill="#FFFFFE"/>
    <path d="M385.616,361.988 L385.616,360.407 L355.001,360.407 C354.584,360.407 354.177,360.575 353.883,360.87 C353.588,361.164 353.42,361.571 353.42,361.988 L353.42,480.508 C353.42,480.925 353.588,481.332 353.883,481.626 C354.177,481.92 354.584,482.089 355.001,482.089 L385.616,482.089 C386.032,482.089 386.439,481.92 386.734,481.626 C387.028,481.332 387.197,480.924 387.197,480.508 L387.197,361.988 C387.197,361.572 387.028,361.164 386.734,360.87 C386.439,360.576 386.032,360.407 385.616,360.407 L385.616,361.988 L384.035,361.988 L384.035,478.927 L356.581,478.927 L356.581,363.568 L385.616,363.569 L385.616,361.988 L384.035,361.988 L385.616,361.988" fill="#1A1919"/>
    <path d="M385.616,361.988 L416.241,361.988 L416.241,480.508 L385.616,480.508 z" fill="#FFFFFE"/>
    <path d="M416.241,361.988 L416.241,360.407 L385.616,360.407 C385.2,360.407 384.792,360.575 384.498,360.87 C384.204,361.164 384.035,361.571 384.035,361.988 L384.035,480.508 C384.035,480.925 384.204,481.332 384.498,481.626 C384.792,481.92 385.2,482.089 385.616,482.089 L416.241,482.089 C416.657,482.089 417.064,481.92 417.359,481.626 C417.653,481.332 417.822,480.924 417.822,480.508 L417.822,361.988 C417.822,361.572 417.653,361.164 417.359,360.87 C417.064,360.576 416.657,360.407 416.241,360.407 L416.241,361.988 L414.66,361.988 L414.66,478.927 L387.197,478.927 L387.197,363.569 L416.241,363.569 L416.241,361.988 L414.66,361.988 L416.241,361.988" fill="#1A1919"/>
    <path d="M416.241,361.988 L446.876,361.988 L446.876,480.508 L416.241,480.508 z" fill="#FFFFFE"/>
    <path d="M446.876,361.988 L446.876,360.407 L416.241,360.407 C415.825,360.407 415.417,360.575 415.123,360.87 C414.829,361.164 414.66,361.571 414.66,361.988 L414.66,480.508 C414.66,480.925 414.829,481.332 415.123,481.626 C415.417,481.92 415.825,482.089 416.241,482.089 L446.876,482.089 C447.292,482.089 447.699,481.92 447.994,481.626 C448.288,481.332 448.457,480.924 448.457,480.508 L448.457,361.988 C448.457,361.572 448.288,361.164 447.994,360.87 C447.699,360.576 447.292,360.407 446.876,360.407 L446.876,361.988 L445.295,361.988 L445.295,478.927 L417.822,478.927 L417.822,363.569 L446.876,363.569 L446.876,361.988 L445.295,361.988 L446.876,361.988" fill="#1A1919"/>
    <path d="M446.876,361.988 L477.491,361.988 L477.491,480.508 L446.876,480.508 z" fill="#FFFFFE"/>
    <path d="M477.491,361.988 L477.491,360.407 L446.876,360.407 C446.459,360.407 446.052,360.575 445.758,360.87 C445.463,361.164 445.295,361.571 445.295,361.988 L445.295,480.508 C445.295,480.925 445.463,481.332 445.758,481.626 C446.052,481.92 446.459,482.089 446.876,482.089 L477.491,482.089 C477.907,482.089 478.314,481.92 478.609,481.626 C478.903,481.332 479.072,480.924 479.072,480.508 L479.072,361.988 C479.072,361.572 478.903,361.164 478.609,360.87 C478.314,360.576 477.907,360.407 477.491,360.407 L477.491,361.988 L475.91,361.988 L475.91,478.927 L448.456,478.927 L448.456,363.568 L477.491,363.569 L477.491,361.988 L475.91,361.988 L477.491,361.988" fill="#1A1919"/>
    <path d="M39.035,361.988 L58.439,361.988 L58.439,434.649 L39.035,434.649 z" fill="#1A1919"/>
    <path d="M69.659,361.988 L89.063,361.988 L89.063,434.649 L69.659,434.649 z" fill="#1A1919"/>
    <path d="M100.304,361.988 L119.698,361.988 L119.698,434.649 L100.304,434.649 z" fill="#1A1919"/>
    <path d="M161.534,361.988 L180.938,361.988 L180.938,434.649 L161.534,434.649 z" fill="#1A1919"/>
    <path d="M192.179,361.988 L211.573,361.988 L211.573,434.649 L192.179,434.649 z" fill="#1A1919"/>
    <path d="M253.429,359.498 L272.823,359.498 L272.823,432.159 L253.429,432.159 z" fill="#1A1919"/>
    <path d="M284.054,359.498 L303.458,359.498 L303.458,432.159 L284.054,432.159 z" fill="#1A1919"/>
    <path d="M314.679,359.498 L334.073,359.498 L334.073,432.159 L314.679,432.159 z" fill="#1A1919"/>
    <path d="M375.929,359.498 L395.333,359.498 L395.333,432.159 L375.929,432.159 z" fill="#1A1919"/>
    <path d="M406.563,359.498 L425.958,359.498 L425.958,432.159 L406.563,432.159 z" fill="#1A1919"/>
    <path d="M468.507,359.498 L487.911,359.498 L487.911,432.159 L468.507,432.159 z" fill="#1A1919"/>
  </g>
</svg>
