<?xml version="1.0"?>
<svg xmlns:rdf="http://www.w3.org/1999/02/22-rdf-syntax-ns#" xmlns="http://www.w3.org/2000/svg" xmlns:cc="http://creativecommons.org/ns#" xmlns:dc="http://purl.org/dc/elements/1.1/" xmlns:svg="http://www.w3.org/2000/svg" id="svg1" viewBox="0 0 430.25 520.46" version="1.0">
  <path id="path923" d="m270.18 71.491l159.45-70.866-17.72 159.44v-141.72l-141.73 53.151z" stroke="#000" stroke-width="1pt" fill-rule="evenodd"/>
  <path id="path925" d="m394.2 53.775l-0.41 359.98-16.56 0.27-0.75-333.24-230.32 79.28v-17.71l248.04-88.585z" stroke="#000" stroke-width="1pt" fill-rule="evenodd"/>
  <path id="path926" d="m146.16 160.07v141.74h24.49l0.72-151.21-25.21 9.47z" stroke="#000" stroke-width="1pt" fill-rule="evenodd"/>
  <path id="path928" d="m231.05 376.13a56.143 30.591 0 1 1 -112.29 0 56.143 30.591 0 1 1 112.29 0z" fill-rule="evenodd" transform="matrix(1.2071 -.57293 .70780 1.2224 -378.16 -37.14)" stroke="#000" stroke-width="1pt"/>
  <path id="path930" d="m143.29 377.21a21.953 20.154 0 1 1 43.68 1.11" fill-rule="evenodd" transform="matrix(1.8108 -1.5348 1.7801 .34411 -873.18 446.33)" stroke="#000" stroke-width="1pt" fill="#fff"/>
  <path id="path931" d="m194.17 352.87a24.473 28.791 0 0 1 30.35 26" fill-rule="evenodd" transform="matrix(.95585 -1.8042 2.3909 -.60573 -970.47 922.33)" stroke="#000" stroke-width="1pt"/>
  <path id="path4658" d="m172.09 213.22l204.39-35.43v9.52l-204.39 50.39v-24.48z" stroke="#000" stroke-width="1pt" fill-rule="evenodd"/>
  <path id="path5281" d="m170.65 160.07l195.78-64.169-0.72 73.419-6.95 1.44v-10.69l-88.58 17.72 17.72-35.43-117.25 17.71z" stroke="#000" stroke-width="1pt" fill-rule="evenodd"/>
  <path id="path6524" d="m231.05 376.13a56.143 30.591 0 1 1 -112.29 0 56.143 30.591 0 1 1 112.29 0z" fill-rule="evenodd" transform="matrix(1.2627 -.66156 .74040 1.4114 -180.52 15.391)" stroke="#000" stroke-width="1pt"/>
  <path id="path6525" d="m143.29 377.21a21.953 20.154 0 1 1 43.68 1.11" fill-rule="evenodd" transform="matrix(1.8943 -1.7722 1.8621 .39734 -697.2 574.78)" stroke="#000" stroke-width="1pt" fill="#fff"/>
  <path id="path6526" d="m194.17 352.87a24.473 28.791 0 0 1 30.35 26" fill-rule="evenodd" transform="matrix(.99988 -2.0833 2.5011 -.69944 -798.98 1124.4)" stroke="#000" stroke-width="1pt"/>
  <path id="path6527" d="m470.6 478.2a55.423 66.94 0 0 1 -2.01 118.85" fill-rule="evenodd" transform="matrix(.66038 .75945 -.77126 .65057 468.88 -235.99)" stroke="#000" stroke-width="1pt"/>
  <path id="path6528" d="m491.19 501.68a55.423 66.94 0 0 1 -7.4 82.05" fill-rule="evenodd" transform="matrix(1.4901 .64218 -1.2655 1.1869 318.29 -484.02)" stroke="#fff" stroke-width="1pt" fill="#fff"/>
  <path id="path9014" d="m470.6 478.2a55.423 66.94 0 0 1 -2.01 118.85" fill-rule="evenodd" transform="matrix(-.59516 -.81157 .82252 -.58441 -105.92 982.12)" stroke="#000" stroke-width="1pt"/>
  <path id="path9015" d="m491.19 501.68a55.423 66.94 0 0 1 -7.4 82.05" fill-rule="evenodd" transform="matrix(-1.4965 -.68356 1.3491 -1.0685 59.226 1202.8)" stroke="#fff" stroke-width="1pt" fill="#fff"/>
  <metadata>
    <rdf:RDF>
      <cc:Work>
        <dc:format>image/svg+xml</dc:format>
        <dc:type rdf:resource="http://purl.org/dc/dcmitype/StillImage"/>
        <cc:license rdf:resource="http://creativecommons.org/licenses/publicdomain/"/>
        <dc:publisher>
          <cc:Agent rdf:about="http://openclipart.org/">
            <dc:title>Openclipart</dc:title>
          </cc:Agent>
        </dc:publisher>
        <dc:title>funny music note</dc:title>
        <dc:date>2008-02-05T04:11:48</dc:date>
        <dc:description>cartoon, cartoon, clip art, clipart, image, media, music, music, note, note, png, public domain, svg, </dc:description>
        <dc:source>http://openclipart.org/detail/12773/funny-music-note-by-anonymous-12773</dc:source>
        <dc:creator>
          <cc:Agent>
            <dc:title>Anonymous</dc:title>
          </cc:Agent>
        </dc:creator>
        <dc:subject>
          <rdf:Bag>
            <rdf:li>cartoon</rdf:li>
            <rdf:li>clip art</rdf:li>
            <rdf:li>clipart</rdf:li>
            <rdf:li>image</rdf:li>
            <rdf:li>media</rdf:li>
            <rdf:li>music</rdf:li>
            <rdf:li>note</rdf:li>
            <rdf:li>png</rdf:li>
            <rdf:li>public domain</rdf:li>
            <rdf:li>svg</rdf:li>
          </rdf:Bag>
        </dc:subject>
      </cc:Work>
      <cc:License rdf:about="http://creativecommons.org/licenses/publicdomain/">
        <cc:permits rdf:resource="http://creativecommons.org/ns#Reproduction"/>
        <cc:permits rdf:resource="http://creativecommons.org/ns#Distribution"/>
        <cc:permits rdf:resource="http://creativecommons.org/ns#DerivativeWorks"/>
      </cc:License>
    </rdf:RDF>
  </metadata>
</svg>
