<?xml version="1.0" encoding="utf-8"?>

<!DOCTYPE svg PUBLIC "-//W3C//DTD SVG 1.1//EN" "http://www.w3.org/Graphics/SVG/1.1/DTD/svg11.dtd">
<svg version="1.1" id="Layer_1" xmlns="http://www.w3.org/2000/svg" xmlns:xlink="http://www.w3.org/1999/xlink" x="0px" y="0px"
	 viewBox="0 0 1832.139 1710.949" enable-background="new 0 0 1832.139 1710.949" xml:space="preserve">
<path d="M1376.066,55.474c0.279,0,11.566,1.833,11.841,1.877c0.205,2.039,0.392,4.078,0.609,6.117
	c24.006-10.044,24.229,13.733,24.901,28.071c282.148-14.06,252.781,41.526,65.212,72.367c-22.086,3.723-44.314,6.465-66.549,9.075
	c1.558,7.701,6.25,4.944,7.54,35.4c1.772-1.019,3.456-2.462,5.582-2.642c2.142,1.392,1.786,2.427-7.297,26.3
	c0.025,9.1,0.783,18.213,1.082,27.313c-1.461,0.423-2.909,0.833-4.351,1.262c2.486,71.472,4.973,142.943,7.459,214.421
	c24.406,0.827,35.871-3.064,36.134,16.193c16.734-1.43,33.523-1.821,50.3-2.368c19.456-0.684,38.931-0.97,58.399-1.399
	c-0.006-2.89-0.006-5.781,0-8.671c1.647-0.634,3.307-1.243,4.967-1.865c0.199-1.666,0.41-3.319,0.628-4.973
	c-1.044-0.833-2.083-1.66-3.102-2.486c0.597-0.839,1.224-1.666,1.852-2.493c-0.628-1.243-1.243-2.486-1.852-3.723
	c0.783-0.609,1.573-1.212,2.393-1.809c-1.523-1.846-2.281-4.115-2.63-6.452c-2.99,0.205-5.775,1.349-8.429,2.654
	c-2.839,10.012-14.202,16.91-11.773-0.019c1.282-7.827,6.531-21.691,7.72-23.186c1.193-1.125,3.4-1.796,4.687-0.423
	c3.899,4.223-1.311,12.831,8.665,11.406c1.121-9.985-0.595-10.432,7.441-10.897c5.18-140.635,8.661-141.26,6.831,0.622
	c2.841,0.329,5.588,1.206,8.112,2.567c-1.044,0.628-2.064,1.262-3.083,1.896c4.436,6.934-0.804,18.778,0.97,24.858
	c-2.263,0.852-4.904,1.691-5.75,4.233c2.076,0.671,4.177,1.262,6.266,1.933c-0.939,0.46-1.871,0.926-2.772,1.417
	c-0.23,1.61-0.429,3.232-0.628,4.855c1.442,1.256,2.903,2.505,4.357,3.767c-0.218,2.679-0.429,5.352-0.634,8.037
	c223.751,8.994,239.586,68.041,14.303,64.659c-0.012,3.736,0.006,7.472-0.006,11.207c-6.244,6.774-3.291,4.819-8.485,6.297
	c-1.747,2.213-4.401,3.176-7.068,3.711c-1.1,6.34-1.225,12.793-1.846,19.189c-1.256,0.416-2.493,0.833-3.723,1.262
	c-2.089,82.418-4.134,164.836-6.228,247.254c1.821,0.404,4.364,0.224,5.408,2.107c0.597,3.232,0.497,6.552,0.821,9.821
	c4.743,0.771,10.026,0.939,13.905,4.165c-0.615,6.471-0.541,12.985-0.864,19.475c-4.351,0.82-8.696,1.654-13.041,2.486
	c0.05,7.08,0.131,14.315-1.846,21.184c-0.522,1.977-1.685,3.699-3.089,5.159c-1.355,55.024-2.499,110.061-3.773,165.091
	c13.703,2.05,16.798,4.067,15.801,10.573c3.903,3.013,40.115,109.245,41.343,112.889c2.899,1.255,5.985,1.342,1.983,10.797
	c0.521,1,36.02,83.519,40.354,115.562c8.44,2.712,6.079,2.713,9.846,15.316c-0.622,0.522-1.218,1.063-1.734,1.678
	c0.18,0.821,0.503,1.604,0.833,2.424c-0.28,0.305-0.839,0.92-1.119,1.225c0.541,0.957,1.1,1.921,1.672,2.903
	c-0.858,2.188,0.802,3.866,2.263,5.246c0.354,2.841,1.492,5.961,0.056,8.677c-6.454,10.75-40.164,7.266-28.668-7.124
	c0.261-1.343-0.92-2.337-1.498-3.394c1.044-1.019,1.293-2.343,0.709-3.661c0.522-0.51,1.051-1.007,1.591-1.511
	c-0.885-2.772-6.409-5.661,3.643-12.519c-1.189-20.966-31.095-98.546-38.595-117.967c-2.076,0.615-4.146,1.243-6.21,1.877
	c12.631,59.251,25.287,118.489,37.899,177.74c62.876,37.98,73.997,41.151,82.107,56.454c11.075-3.213,35.28,29.669,33.896,30.912
	c-14.054,14.495-34.328,20.665-38.682,1.262c-0.572-0.659-1.274-1.218-1.865-1.765c0.305-0.317,0.92-0.957,1.231-1.281
	c-1.256-1.088-2.748-1.809-4.289-2.3c0.385-0.677,0.771-1.349,1.162-2.008c-1.005-1.48-7.127-2.849-4.643-11.786
	c-10.683-13.907-47.87-35.248-63.304-43.984c1.243,7.608,2.437,15.223,3.73,22.825c8.788,2.074,7.418,7.96,8.653,16.13
	c-0.777,0.845-1.834,1.548-2.182,2.698c0.106,1.784,1.877,2.654,3.133,3.636c-0.696,0.727-2.169,1.169-1.958,2.399
	c0.584,1.113,1.678,1.821,2.598,2.679c-0.615,0.404-1.212,0.821-1.796,1.256c0.814,2.02,2.312,3.63,3.966,5.029
	c0.46,2.642,1.33,5.221,1.591,7.907c-1.143,4.19-13.963,4.762-18.287,4.917c-9.348-3.809-14.691-8.688-12.563-19.381
	c2.462-1.063,1.89-3.649,0.995-5.607c2.337-1.274,0.696-3.698-0.199-5.352c0.584-0.46,1.187-0.889,1.821-1.305
	c-0.696-1.61-1.915-2.841-3.301-3.835c-0.394-5.494,1.021-7.858,6.943-11.108c-1.231-9.908-2.474-19.811-3.711-29.713
	c-15.95-9.125-31.907-18.232-47.857-27.35c-0.634,5.383-1.243,10.766-1.871,16.155c-48.165,12.688-30.76,8.583-63.969,10.735
	c-2.648,1.542-61.7,43.412-72.162,50.822c-0.224,1.635-0.423,3.288-0.622,4.948c-6.564,0.864-13.147,1.591-19.705,2.518
	c-3.636,5.146-8.659,6.122-17.504,5.601c-0.245,1.005-1.608,9.399-5.855,6.384c-0.696-1.063-1.15-2.244-1.828-3.282
	c-2.232-0.435-3.015,2.536-4.892,3.232c-1.716-0.075-2.915-1.442-4.158-2.424c1.392-5.613-3.574-9.747-7.59-12.675
	c-9.504,46.141-19.046,92.27-28.538,138.412c5.382,4.244,5.135,11.532,4.301,19.263c-3.03,2.338-3.241,1.432-2.169,6.763
	c-0.479,0.51-0.957,1.038-1.336,1.647c-0.037,1.305,0.858,2.406,1.405,3.562c-2.92,2.808-3.256,2.28,0.174,6.44
	c-0.845,4.444,0.025,9.871-3.599,13.259l-0.143,0.274h-0.951c-10.007-4.947-27.5,5.333-19.562-19.667
	c1.15-0.578,2.791-0.721,3.369-2.045c0.143-1.33-0.69-2.462-1.169-3.605c0.789-0.466,1.703-0.783,2.381-1.43
	c0.615-1.492-0.609-2.841-1.119-4.121c0.939-0.472,2.138-0.628,2.847-1.486c0.622-1.784-0.584-3.475-1.212-5.06
	c1.233-8.183,0.22-13.099,9.274-14.962c9.772-46.763,19.462-93.538,29.203-140.308c-1.871-0.845-3.736-1.672-5.594-2.505
	c0.199-3.108,0.41-6.21,0.622-9.312c-14.284-14.9-28.544-29.818-42.847-44.693c-7.982,1.066-20.468-0.675-28.488-1.958
	c2.003,3.896,5.959,22.702-21.209,15.59c2.089-18.388-4.427-4.419,2.996-42.176c-7.398-4.739-10.436-15.379-12.413-24.342
	c-121.532,67.627-114.258,60.651-121.734,72.46c6.496,5.586-7.13,26.945-16.87,27.655c0.429,3.705,0.827,7.416,1.249,11.127
	c1.442-0.006,2.884-0.006,4.345,0.012c1.051,6.583,2.051,13.184,3.108,19.773c5.676,0.53,6.686,0.46,8.342,5.663
	c0.939-0.416,1.89-0.827,2.853-1.218c8.218-49.379,27.245,27.979,10.847,25.113c-0.693-0.416-10.939-14.471-11.369-15.08
	c-3.254,7.746-6.279,5.87-15.64,9.268c0.833,6.8,1.635,13.601,2.486,20.401c1.15,0.081,2.362,0,3.506,0.367
	c4.949,3.748,25.654,60.928,13.874,68.737c-36.934,24.603-44.149-24.896-32.286-66.511c1.013-0.236,2.051-0.429,3.089-0.634
	c-1.237-6.831-2.48-13.663-3.723-20.494c-2.281-0.224-4.563-0.435-6.838-0.64c-2.082-13.253-4.134-26.505-6.216-39.758
	c1.231-0.852,2.48-1.678,3.73-2.511c-3.929-26.511-7.882-53.016-11.798-79.527c-1.051-0.646-2.082-1.281-3.114-1.902
	c-0.64-4.967-1.237-9.933-1.877-14.893c-1.871,1.852-3.729,3.711-5.588,5.576c-2.076-1.243-4.146-2.486-6.216-3.723
	c-17.61,24.653-35.226,49.305-52.83,73.964c0.398,0.821,0.808,1.647,1.231,2.493c-8.032,10.158-26.532,38.114-37.383,25.573
	c-36.221,37.64-89.59,67.067-138.325,83.17c1.472,17.379-32.884,22.861-34.573,6.253c-51.683,12.534-110.393,4.946-157.7-14.284
	c-0.839,1.224-1.666,2.468-2.493,3.711c-5.799-0.006-11.599,0-17.399,0c-4.563-4.755-9.113-9.523-13.669-14.284
	c-0.012-1.877-0.006-3.742-0.012-5.601c-49.159-22.48-93.772-63.076-121.834-102.558c-1.473,0.821-2.928,1.672-4.401,2.493
	c-15.116-5.787-23.502-19.645-14.253-29.837c-7.981-11.556-13.613-24.51-19.263-37.308c-5.57,18.443-11.201,36.861-16.758,55.304
	c1.237,0.211,2.468,0.417,3.711,0.653c-2.698,12.631-5.383,25.262-8.081,37.893c-3.524,0.006-7.049,0-10.567,0.006
	c-1.84,6.185-3.736,12.351-5.538,18.549c10.402,5.28-2.138,109.044-39.683,56.628c-1.212-1.914-2.48-4.308-1.852-6.595
	c7.087-10.62,18.831-51.755,29.657-54.347c1.722-5.974,3.307-11.978,4.991-17.958c-9.54-4.86-0.318,1.453-24.242-21.134
	c0.404-0.845,0.821-1.678,1.249-2.486c5.998,1.653,12.003,3.307,18.002,4.967c5.477-5.028,3.101,0.522,9.946-22.359
	c1.448-0.23,2.903-0.441,4.357-0.646c5.209-17.809,10.343-35.643,15.559-53.451c-20.717,9.706-27.805,12.019-70.253,39.795
	c-0.218,1.647-0.416,3.313-0.628,4.979c-32.405-1.177-24.061,6.015-42.3,3.755c-4.581,2.865-9.349,5.806-14.869,6.303
	c-0.012-1.299-0.012-2.586-0.019-3.854c-1.243,0.609-2.486,1.231-3.723,1.859c-1.038-0.423-2.07-0.833-3.096-1.231
	c-0.218-1.666-0.429-3.332-0.64-4.979c-17.815-8.51-35.636-16.995-53.458-25.486c-75.457,129.586-69.299,115.474-81.417,147.928
	c8.566,21.822-1.469,7.779,0.367,19.612c-1.482,1.617-2.205,0.689,0,4.904c-2.654,1.402,0.184,23.181-14.707,17.156
	c-13.364-4.573-20.641-5.309-20.805-11.823c0.081-3.04,1.716-5.725,2.779-8.491c3.719-1.047,3.845-0.135,4.575-6.141
	c0.746-0.522,1.74-0.783,2.238-1.573c0.205-1.175-0.137-2.318-0.28-3.45c2.175-2.124,2.712-1.066,1.069-5.967
	c5.316-10.152,6.005-14.316,15.484-13.047c14.405-34.564-0.62-5.51,80.715-147.792c-1.886-4.715-1.909-8.713,3.667-13.134
	c1.069,0.423,2.138,0.858,3.214,1.305c7.671-13.669,15.316-27.35,22.999-41.007c-10.63-16.877-19.974-14.253-29.849-32.957
	c-72.171,54.788-68.866,51.722-70.539,55.049c-1.162,2.362-1.827,5.358-0.336,7.739c1.044,1.684,1.473,4.016-0.062,5.582
	c-2.959,3.425-3.369,8.236-2.735,12.55c0.964,3.879-15.222,6.12-19.139,3.176c-5.085-3.643-7.639-9.523-10.803-14.701
	c-5.315-7.845,131.293-127.707,176.982-126.054c-0.435-59.438-0.82-118.875-1.256-178.312c-19.676-3.937-55.428-12.534-62.788-31.18
	c-11.384,200.579,0.817,162.279-38.135,208.659c-2.772,3.251-5.358,6.67-8.51,9.573c-16.16,15.858-15.195,31.361-12.998,53.501
	c-6.408,6.106-11.991,3.472-18.586-2.331c4.848-5.445,5.47-13.116,6.166-20.04c1.026-0.64,2.057-1.281,3.089-1.902
	c0.603-3.829,0.995-7.689,1.591-11.512c1.486-6.297,5.172-11.86,9.417-16.646c4.326-4.985,8.622-9.989,12.936-14.987
	c61.276-68.785,17.14-153.276,38.782-222.247c-17.336-8.086-12.848-9.452-10.573-28.42c-4.497-5.416-1.962-9.697,2.517-15.758
	c0.025-2.928,0.019-5.849,0.025-8.771c-6.859-1.313-7.254-0.185-8.939,4.444c-3.469-0.646-6.937-1.243-10.406-1.852
	c-1.038-7.646,0.684-15.391,3.761-22.378c3.531,0.429,7.068,0.827,10.605,1.262c0,2.12-0.006,4.252,0,6.384
	c21.242,4.227,15.361-1.138,20.519-169.243c-3.332-0.224-6.657-0.423-9.989-0.64c-3.058-7.005-4.084-15.54-0.062-22.39
	c3.35,0.025,6.695,0.019,10.039,0.019c0.429-11.599,0.833-23.198,1.249-34.797c0.827-0.634,1.653-1.268,2.486-1.89
	c0.865-17.935,2.229-15.14-3.189-18.847c-0.864-4.78,0.019-10.039,3.624-13.526c1.142-5.045,0.266-4.898,5.911-3.792
	c0.995-0.783,1.989-1.573,2.984-2.356c1.296-6.687-7.719-22.181,52.824-26.12c1.558-180.567,7.828-135.31-17.368-196.917
	c-11.488-0.247-19.222-25.109-14.384-33.772c-33.249-78.273-27.568-85.222-58.984-78.365c-4.301-0.249-8.28-3.935-7.664-8.472
	c7.101-4.336,12.327-9.636,17.423-7.248c1.144-0.752,2.281-1.504,3.419-2.256c-0.935-16.581-15.878-2.58-114.71-66.256
	c-283.144-183.745,110.974-148.907,339.239,16.317c148.09,105.273,36.095,143.794-193.573,56.242c1.019,3.313,2.07,6.62,3.089,9.939
	c-1.66,1.243-3.313,2.48-4.967,3.73c10.356,22.974,20.693,45.961,31.061,68.935c22.408-6.186,44.583-10.095,44.83,13.122
	c1.846-0.224,3.692-0.429,5.545-0.64c2.07-6.216,4.134-12.426,6.21-18.636c2.07,0.41,4.14,0.821,6.21,1.243
	c3.822,33.908,3.986,25.198-0.622,48.479c-1.455-0.622-2.903-1.249-4.351-1.871c-2.294-5.178-4.544-10.368-6.838-15.54
	c-2.051,0.211-4.103,0.416-6.154,0.634c-0.137,5.134-0.895,11.587-6.253,13.93c-0.261,9.026-0.423,18.051-0.64,27.077
	c-1.442,0.845-2.903,1.666-4.345,2.505c0.15,21.774,33.698,82.666,42.008,102.172c0.464,3.482-1.475,13.686-17.765,8.51
	c-17.139-42.052,5.013-0.973-23.584-56.392c-0.522,37.408-0.833,74.828-1.293,112.242c10.701-2.539,28.638-2.146,39.727-1.803
	c-4.781-10.673,17.579-61.986,22.974-65.958c10.58,1.361,21.184,2.505,31.776,3.792c6.197-8.817,4.336-9.521,10.524-13.719
	c9.675,1.927,14.91-1.194,10.66,18.07c15.672,2.355,19.734,3.863,20.513,0.64c-1.34-3.754-5.48-5.23,4.395-8.852
	c3.467-10.033,1.007-11.004-4.047-11.139c-7.715-9.599,35.604-19.634,23.409-4.109c-2.629,2.405-10.156,5.346-8.982,18.461
	c5.663,0.267,11.326,0.392,16.988,0.678c2.634-5.128,1.902-15.659,9.33-12.103c6.544-23.201,4.144-10.392,13.526-53.103
	c-2.994-7.32-1.508-9.017,3.027-12.04c1.288-7.851,1.99-6.296,5.128-6.347c7.093-6.608,16.497-9.846,25.349-13.389
	c0.077-6.61-0.195-8.259,7.018-5.725c39.141-32.15,122.072-21.08,171.562-10.748c12.606,2.48,25.113,5.47,37.539,8.734
	c21.961,5.619,43.587,12.898,63.95,22.925c11.947,5.967,23.546,12.917,33.423,21.992c19.175,18.201,14.493,26.596,12.979,41.075
	c10.846,12.887-0.028,18.249-3.133,37.346c-1.455-0.218-2.903-0.423-4.345-0.628c-1.256,6.005-2.486,12.016-3.736,18.02
	c0.82,1.038,1.654,2.082,2.486,3.127c-1.66,8.491-3.319,16.982-4.967,25.473c4.059,1.349,8.286,2.244,12.264,3.829
	c5.801,5.719-1.204,17.606-6.657,24.155c-3.319-0.839-6.639-1.666-9.958-2.493c-3.929,22.757-7.901,45.501-11.773,68.264
	c1.15,1.883,2.437,3.953,2.101,6.266c-0.193,2.306-1.815,4.059-3.294,5.688c1.249,3.332,2.2,7.03,1.156,10.555
	c-0.578,2.244-2.107,4.047-3.667,5.688c-0.485,4.842-1.473,9.759-4.065,13.949c-1.473,2.194-0.988,5.172-2.636,7.254
	c-1.106,1.374-2.822,0.311-4.14-0.031c-37.798,18.932-89.615,17.047-131.549,11.68c-29.644-3.96-58.971-10.232-87.664-18.667
	c-2.319,57.125-4.494,114.263-6.887,171.388c5.215-7.318,25.786-16.911,32.423-17.336c23.835-27.17,58.312-49.03,90.692-63.938
	c-0.622-2.493-1.243-4.985-1.871-7.465c11.651-8.621,19.033-7.895,24.379-5.65c0.702-0.373,1.417-0.734,2.132-1.1
	c1.588-6.193,5.821-7.45,13.799-10.051c7.657-10.287,23.837-5.825,25.175,2.518c48.643-11.931,105.443-6.842,151.957,9.883
	c9.486-12.126,33.87,0.463,30.061,13.781c44.503,19.443,86.654,56.901,115.406,94.856c8.201-2.495,20.247,8.367,20.774,9.367
	c1.492,2.679,1.106,5.862,0.771,8.783c-0.342,2.368,1.374,4.693,0.417,7.03c-0.727,1.921-2.71,2.816-4.357,3.792
	c23.221,42.417,42.359,97.981,40.348,145.287c1.846-0.006,3.698-0.012,5.563,0c11.39,25.734-0.246,36.807-8.69,36.171
	c1.096,28.315-16.842,71.848-28.581,97.455c52.632-28.356,32.052-18.441,60.718-30.987c-0.988-2.375-1.411-5.296,0.23-7.484
	c4.739-3.064,7.098,3.071,8.18,5.52c24.8-7.309,7.903-4.697,30.303-9.318c1.243-30.608,2.524-61.209,3.698-91.817
	c-8.766-8.258-0.057-21.335-9.287-37.7c-12.52,15.187-24.228-5.13-26.542-12.587c8.83-0.441,4.418,5.412,23.198,2.934
	c1.14-7.687,8.833-7.077,17.02-6.297c0.833-34.586,1.647-69.172,2.493-103.758c-4.556-0.242-9.119-0.417-13.675-0.646
	c-11.131,53.452-17.946,44.696-19.288,14.564c-6.514-3.363-2.827-5.831-3.953-10.058c-1.902-3.052-5.905-3.301-9.088-3.96
	c0.093-4.103,0.653-8.199,0.466-12.295c-2.56-8.05-8.326-10.264-2.244-17.106c-4.031-19.825-15.521-14.669-33.038-60.643
	c-78.533-13.799-77.703-11.731-71.509-36.681c-16.799-3.791-17.672-5.348-16.261,3.083c3.35,1.411,6.676,2.89,10.001,4.364
	c-10.758,1.374-13.032,4.06-39.658-10.499c-1.964,2.754-5.352,3.046-8.385,3.674c-5.676,6.103-12.251,0.855-29.999-7.963
	c0.547-0.211,1.629-0.646,2.169-0.864c-1.032-1.629-2.611-2.741-4.233-3.705c-3.283-30.785-8.413-37.628,17.877-50.232
	c-19.972-2.685-40.211-5.781-58.884-13.688c-14.049-6.306-29.225-17.318-23.72-31.77c-5.029-10.512-4.022-4.445-4.264-14.838
	c-1.455-1.461-2.909-2.909-4.357-4.357c-0.012-3.736-0.012-7.465,0-11.195c1.013-0.218,2.057-0.423,3.096-0.634
	c0,0-1.948-17.012-1.231-99.437c-3.966-0.435-7.925-0.845-11.891-1.249c-4.482-8.031-2.424-17.877,1.896-25.511
	c3.326,0.236,6.651,0.429,9.989,0.653c0.211-9.119,0.41-18.244,0.628-27.357c1.019-0.012,2.057-0.012,3.102-0.012
	c-0.006-5.383,0-10.766,0-16.149c-1.871-0.833-3.736-1.666-5.594-2.499c0.205-3.929,0.404-7.863,0.628-11.792
	c1.436-0.218,2.89-0.429,4.339-0.64c0.211-2.692,0.417-5.383,0.634-8.075c1.423,0.205,2.834,0.404,4.27,0.615
	c24.237-60.505,308.155-62.395,314.642,35.307c3.648,4.496,4.265,6.538-0.634,11.456c-0.274,9.691-0.423,19.382-0.646,29.072
	c1.653,1.666,3.313,3.332,4.985,4.991c9.516-1.476,3.437-1.426,21.737-0.622c0.205-2.698,0.417-5.389,0.628-8.081
	c-7.492-4.72-11.239-5.564-10.082-9.299c1.948-1.859,4.815,0.074,11.232,1.778c3.999-1.614,8.262-2.671,10.424,1.492
	c0.218,1.175-0.193,2.381-0.317,3.562c14.988,10.457,12.988,13.377-0.684,8.671c-0.423,1.815-0.827,3.636-1.193,5.47
	c2.008,2.965,2.573,6.552,2.524,10.07c6.353,0,12.712,0,19.071,0c1.352-14.012,6.279-15.641,20.618-11.823
	c0.199,3.313,0.41,6.626,0.622,9.939c14.092,0.595,32.468,1.029,35.183,1.517c6.197,3.902,10.75,29.783,12.065,36.967
	c18.111,13.682-3.248,33.323-5.016,51.021c7.944,1.815,15.683,4.457,23.285,7.385c0.417-1.566,1.436-2.797,2.748-3.723
	c1.473,0.472,2.965,0.914,4.463,1.355c-0.205-14.067-0.423-28.134-0.615-42.2c-4.824,2.847-10.94,2.381-15.565-0.634
	c-1.411-47.888-2.884-95.77-4.339-143.658c-14.025-5.718-20.904-10.181-11.823-18.02c-1.594-12.615-1.739-28.3,9.958-33.138
	c-2.275-71.838-4.544-143.671-6.838-215.509c-1.057-0.211-2.07-0.416-3.096-0.628c-0.435-10.567-0.827-21.128-1.256-31.689
	c-1.467-0.218-2.909-0.429-4.357-0.64c-7.372-16.193-9.281-35.17-3.755-52.214c-44.352,3.168-170.446,12.026-210.58-8.155
	c-3.307-1.803-7.043-4.09-8.118-7.932c-0.373-4.768,3.015-8.752,6.403-11.667c31.499-25.821,151.474-44.788,191.689-50.542
	c-6.664-32.419,4.93-28.148,11.941-29.855C1377.297,63.35,1376.781,59.397,1376.066,55.474 M567.936,513.526
	c-1.268,1.753-3.686,1.74-5.619,2.002c-1.877,2.182-2.822,5.128-1.89,7.944c6.647,0.634,10.154,1.135,8.28,7.546
	c1.995,1.653,4.04,3.245,6.03,4.917c1.933-6.757,3.35-13.657,5.091-20.463c-2.536-2.362-5.625-4.333-6.887-7.72
	C570.18,508.46,569.347,511.418,567.936,513.526 M1450.074,539.707c-0.429,3.102-0.839,6.21-1.249,9.318
	c-1.461,1.038-2.915,2.076-4.357,3.127c1.316,155.424,1.03,144.864,1.492,151.298c0.546-5.929,2.611-12.84,8.522-12.183
	c1.871,0.802,3.176,2.505,4.774,3.742c0,0-2.977,40.482-2.978,40.491c1.032,1.243,2.07,2.486,3.12,3.736
	c-0.224,6.421-0.41,12.849-0.634,19.27c-1.653,0.41-3.295,0.82-4.929,1.243c1.894,8.281,0.344,8.393-2.517,9.56
	c0.205,2.194,0.41,4.395,0.622,6.601c10.869-0.156,25.136,0.605,34.2,6.788c0.367,9.759,0.821,19.512,1.225,29.265
	c21.063-1.46,0.285,7.554-11.817,14.937c-0.417,1.635-0.827,3.276-1.237,4.923c-9.007,0.74-17.852,2.729-26.723,4.382
	c-0.224,13.047-0.416,26.089-0.628,39.136c13.901,2.14,11.947,26.675,7.49,30.048c-0.553,9.343-0.547,19.226-4.954,27.723
	c-0.41,15.552-0.547,31.124-0.852,46.688c-1.181,69.607-2.375,139.22-3.543,208.833c60.427-91.061,73.243-98.219,73.243-98.219
	c0.256-11.51-4.226-30.666,10.623-8.746c3.301-5.184,9.933-6.023,15.552-5.688c3.239-1.237,6.539-2.319,9.97-2.946
	c1.051-54.906,2.033-109.812,3.096-164.712c0.13-2.176-1.231-4.059-1.361-6.197c-0.783-7.235-0.317-14.533,0.131-21.775
	c-2.692-0.852-5.383-1.666-8.068-2.493c-1.106-33.257-3.216-34.276,14.906-36.706c2.294-82.25,4.563-164.5,6.844-246.751
	c-1.032-0.41-2.057-0.814-3.064-1.218c-1.471,2.631-1.747,5.94-13.097,1.237c-0.012-1.647-0.012-3.294,0.012-4.935
	c5.897-3.086,4.812-3.616,7.447-13.719c-1.871-0.634-3.736-1.256-5.588-1.877c0.199-1.448,0.392-2.903,0.615-4.345
	c-2.07-2.909-4.152-5.8-6.216-8.709c0.404-3.102,0.814-6.197,1.249-9.293C1517.406,549.858,1483.485,546.203,1450.074,539.707
	 M963.976,595.024c2.48,0,4.967,0,7.459-0.006c-0.41-5.594-0.839-11.183-1.243-16.777c-2.051-1.641-4.109-3.27-6.117-4.948
	C963.852,580.528,964.032,587.776,963.976,595.024 M1258.553,601.861c3.761-0.224,7.534-0.348,11.294-0.684
	C1263.552,593.675,1261.302,595.17,1258.553,601.861 M1241.832,600.003c0,5.8-0.006,11.599,0.006,17.405
	c2.064-0.833,4.134-1.66,6.21-2.486c-0.012-1.66-0.012-3.313,0-4.96c-0.839-0.429-1.666-0.852-2.48-1.268
	c0.199-3.524,0.41-7.043,0.615-10.561C1244.728,598.753,1243.274,599.375,1241.832,600.003 M450.528,608.108
	c0,1.423,0.006,2.853,0.019,4.283c8.707,7.907,11.101,18.17,3.711,29.265c26.368-0.808,52.849,0.479,78.956,4.345
	c-0.41-2.026-0.808-4.047-1.243-6.061c-7.873-2.044-7.751-8.89-6.247-16.939c-9.144-1.268-18.3-2.48-27.437-3.761
	c-2.673-2.785-4.743-6.57-3.742-10.542c-5.085-0.429-10.169-0.796-15.254-1.243c-0.014,6.822-8.233,4.689-20.674,3.723
	c-0.006-1.442,0-2.872,0-4.301C455.986,607.636,453.263,608.021,450.528,608.108 M963.982,619.894
	c-2.485,99.408-2.917,85.413-0.634,97.579c2.287-2.057,4.563-4.134,6.838-6.204c0.429-29.632,0.827-59.257,1.249-88.889
	C968.949,621.547,966.463,620.721,963.982,619.894 M1315.839,643.49c1.833,16.339-0.372,13.056-35.456,13.079
	c-2.431,5.091-4.712,10.996-9.946,13.831c-0.037,4.09-0.006,8.18-0.012,12.27c-1.044,0.41-2.07,0.827-3.089,1.249
	c-0.124,0.883-0.199,1.784-0.298,2.685c-0.776-5.878-4.048-17.71-11.493-20.811c-0.093,9.554-0.012,19.108-0.037,28.668
	c23.235,0.92,46.465,2.058,69.65,3.873c12.463,0.914,25.001,1.716,37.265,4.227c-0.019-1.032-0.019-2.057-0.006-3.071
	c-6.129-5.464-10.592-13.377-10.207-21.768c0.249-7.024,3.848-13.42,8.336-18.642c0.019-2.729-0.006-5.451,0.025-8.174
	c-1.51-0.783-3.133-1.883-4.911-1.467c-0.56,0.472-1.082,0.976-1.566,1.51c-6.788-0.174-13.57-0.404-20.351-0.603
	c-1.219-1.859-2.101-4.183-0.734-6.216C1327.283,643.906,1321.558,643.745,1315.839,643.49 M1242.503,652.578
	c-0.765,13.756-1.262,27.524-1.915,41.28c2.275,0.41,4.55,0.833,6.831,1.256C1245.882,654.174,1247.177,662.26,1242.503,652.578
	 M290.789,693.871c-0.416,5.377-0.852,10.754-1.237,16.137c2.502,3.653,1.726-2.503,2.48,36.724
	c2.107,0.193,5.414,0.758,6.204-1.896c-0.427-3.331-4.743-13.939,0.584-18.822c0.528-9.057,0.839-18.12,1.287-27.176
	C297.005,697.171,293.897,695.524,290.789,693.871 M1241.832,702.561c-0.006,3.108-0.006,6.216,0,9.324
	c2.064,1.243,4.134,2.486,6.21,3.736c-0.193-4.357-0.41-8.709-0.615-13.06C1245.549,702.554,1243.69,702.554,1241.832,702.561
	 M290.167,769.706c-1.486,60.942-2.866,121.89-4.388,182.825c9.111,5.171,5.801,11.537,11.854-183.465
	C295.14,769.277,292.654,769.482,290.167,769.706 M1029.965,827.508c-2.2,4.469-2.22,19.096,5.538,13.762
	c-0.273-2.499-0.448-5.004-0.671-7.497c-6.736-3.976-3.972-4.256-1.84-6.527C1031.986,826.763,1030.599,826.259,1029.965,827.508
	 M1042.857,838.66c-2.042,5.104-1.707,7.187,4.388,8.858c0.025-2.113,0.025-4.227,0.025-6.334
	C1045.791,840.338,1044.324,839.499,1042.857,838.66 M1063.426,840.568c0.634,3.301,1.237,6.608,1.871,9.914
	c13.082-0.961,6.884-1.357,22.999,6.856C1090.525,841.285,1096.705,841.724,1063.426,840.568 M1054.736,844.292
	c0.199,1.883,0.423,3.773,0.584,5.669c6.174,3.748,6.265-2.619,4.389-6.918C1058.043,843.453,1056.383,843.869,1054.736,844.292
	 M1414.394,848.407c-7.086,3.015-14.614,4.842-22.129,6.452c-0.224,2.064-0.429,4.134-0.634,6.21
	c2.275-0.211,4.569-0.398,6.863-0.646c3.467-3.268-1.36-1.706,25.467-6.807c-0.006-3.531,0-7.055-0.006-10.58
	C1420.548,844.447,1417.825,847.058,1414.394,848.407 M1129.216,859.776c-4.152,4.793-2.617,11.748-1.771,17.448
	c7.186,1.082,14.402,1.983,21.576,3.152c1.15,1.312,2.741,2.207,4.556,2.082c63.454-2.106-33.067-10.885,54.707-0.87
	c-0.87-4.768-1.672-9.542-2.511-14.309C1195.737,866.977,1198.062,870.104,1129.216,859.776 M1312.035,866.725
	c-27.12,1.796-54.322,1.772-81.486,1.187c13.485,25.337,57.939,9.411,138.654-6.695
	C1350.226,863.754,1331.162,865.687,1312.035,866.725 M1399.731,867.291c2.094,6.904,6.183,18.412,11.742,13.793
	c-1.178-7.021,5.326-7.899,12.494-8.255c-0.23-3.301-0.423-6.601-0.628-9.896C1415.47,864.394,1407.594,865.824,1399.731,867.291
	 M1212.616,867.906c1.038,4.967,2.064,9.939,3.108,14.912c3.525,0.435,7.049,0.839,10.586,1.243
	c-2.94-5.371-5.818-10.772-8.721-16.155C1215.923,867.9,1214.264,867.9,1212.616,867.906 M1371.715,874.881
	c-10.785,1.765-21.495,4.109-32.255,6.067c-4.668,6.13-47.192,62.249-52.134,69.035c-0.347,4.266-1.446,44.169-4.475,139.711
	c14.991,0.316,10.807,18.815,10.567,24.988c-1.243,0.833-2.493,1.653-3.723,2.499c-0.833,7.036-1.66,14.079-2.486,21.122
	c-1.243,1.032-2.486,2.064-3.723,3.102c-0.423,30.26-0.839,60.525-1.243,90.785c1.225,1.417,2.443,2.847,3.692,4.264
	c25.361,1.865,90.293,44.23,93.309,49.119c12.134-17.616,24.528-35.083,36.513-52.786c0.309-8.546,3.795-295.903,3.848-300.246
	c-0.001-0.001-8.696-41.031-8.696-41.032c-1.473,0.012-2.953-0.081-4.389,0.174c-3.5,1.721-5.024,12.69-5.569,16.628
	c-2.083-0.006-4.159-0.006-6.222,0c-3.786-10.934-4.333-22.664-4.333-34.132C1384.632,877.373,1377.826,876.13,1371.715,874.881
	 M1292.219,891.533c2.019,11.126,0.886,8.434-3.145,30.458c1.026,0.609,2.057,1.231,3.108,1.859
	c10.368-13.246,20.693-26.518,31.074-39.745C1312.899,886.529,1302.562,889.047,1292.219,891.533 M1194.603,894.641
	c3.246,7.266,10.639,28.534,17.411,28.898c-3.717-8.292-2.822-17.709-1.287-26.406
	C1205.356,896.282,1199.973,895.468,1194.603,894.641 M1214.456,897.059c-4.93,17.463,2.3,31.458,5.141,34.051
	c8.805,3.745,10.014,13.719,11.12,23.279c1.268-7.36,2.816-14.981,1.635-22.427c-2.382-5.123-1.922-5.228,0.162-30.446
	c-2.667,0.056-5.576,0.062-7.683-1.821C1215.783,899.14,1220.469,898.204,1214.456,897.059 M1262.332,926.965
	c2.133,10.555-1.699,11.402-5.625,8.715c-0.752-2.716-1.629-5.402-2.437-8.093c-1.256-0.012-2.493-0.019-3.717-0.006
	c-3.997,6.391-2.981-3.174-3.755,37.899c4.134,0.261,8.28,0.404,12.42,0.659c2.704-3.307,5.383-6.633,8.087-9.939
	c0.23-9.125,0.417-18.244,0.634-27.369C1266.068,928.195,1264.197,927.574,1262.332,926.965 M372.212,1058.116
	c0.211,56.559,0.41,113.125,0.622,169.685c11.257,0.755,33.809,2.524,42.53,9.908c-4.695,1.984-7.313,0.068-11.456,2.567
	c2.34,3.239,11.425,4.694,20.513,6.197c4.998-60.693,9.921-121.399,14.937-182.098c-5.576,0.211-11.133-0.398-16.684-0.82
	C405.829,1062.001,389.014,1060.074,372.212,1058.116 M466.745,1066.253c-6.042-0.218-12.016-1.392-18.064-1.318
	c-6.023,61.128-12.034,122.256-18.033,183.385c6.961,2.395,20.571,6.999,26.07,11.612c-1.709-4.668-3.282-9.392-4.942-14.079
	c2.057-5.601,4.152-11.195,6.216-16.789c1.647-0.019,3.307-0.012,4.96-0.006c2.822-28.42,8.329-56.597,16.603-83.928
	c7.571-24.522,17.573-48.603,32.516-69.613c-1.461-1.448-2.909-2.897-4.351-4.345c0.205-2.287,0.41-4.569,0.615-6.844
	C494.668,1067.154,480.62,1066.937,466.745,1066.253 M1534.003,1100.975c-0.037,3.319-0.019,6.651-0.019,9.983
	c-1.666,0.615-3.326,1.237-4.979,1.852c-1.044-1.25-2.076-2.493-3.108-3.723c-19.588,17.01-10.401,6.867-77.066,106.909
	c1.001,0.098,91.763,7.022,100.712,2.58c1.61-39.192,3.307-78.378,4.96-117.563c-5.955,0.317-12.494,0.043-17.455-3.674
	C1536.023,1098.545,1535.016,1099.763,1534.003,1100.975 M1574.407,1116.553c-0.876,33.946-1.641,67.897-2.524,101.843
	c0,0,9.634-0.655,34.207-9.852C1588.686,1129.475,1592.746,1131.213,1574.407,1116.553 M1608.414,1173.815
	c2.418,10.766,5.128,21.476,7.372,32.286c0.827-3.133,2.325-6.017,3.966-8.789c-4.314-10.598-8.684-21.172-12.917-31.795
	C1606.879,1168.351,1607.843,1171.055,1608.414,1173.815 M1601.117,1225.339c0.211,7.652,0.398,15.304,0.628,22.956
	c5.053,0.883,10.275,2.2,14.315,5.551c-2.573-10.729-4.973-21.501-7.484-32.242
	C1606.083,1222.84,1603.591,1224.077,1601.117,1225.339 M1468.728,1231.468c-7.807,1.771-15.913,0.497-23.621-1.169
	c-0.23,16.727-0.423,33.455-0.628,50.188c2.946,0.547,4.519,3.232,5.675,5.744c10.856-1.594,51.712,13.438,63.31,19.276
	c1.877-23.41,3.73-46.813,5.601-70.222C1457.996,1227.772,1477.455,1229.864,1468.728,1231.468 M318.655,1256.301
	c-13.775,6.757-25.728,16.702-36.569,27.45c1.852,2.468,3.145,5.445,5.389,7.577c12.482,5.301,16.652,11.522,20.277,20.103
	c7.577-12.538,15.217-25.038,22.775-37.588c-1.51-6.931,0.566-14.141,4.376-19.966c-0.205-1.026-0.41-2.064-0.615-3.065
	C329.005,1252.428,323.603,1253.79,318.655,1256.301 M1571.516,1252.975c-2.542,1.349-2.648,4.625-3.879,6.943
	c5.417,3.17,1.639,12.325-0.628,18.778c1.71,2.743,3.479,5.217-2.437,13.078c1.91,2.319,4.211,4.029-0.012,14.272
	c2.045,2.922,0.783,6.552-0.696,9.417c9.36,0.101,14.959-1.491,12.475,9.312c0,0-7.659,2.65-24.914,3.145
	c13.246,8.274,26.499,16.553,39.739,24.839c0.012-30.048,0-60.09,0.006-90.132c-5.389-3.941-10.772-7.882-16.162-11.804
	C1573.835,1251.533,1572.66,1252.23,1571.516,1252.975 M1530.261,1254.542c-1.256,16.789-2.486,33.573-3.742,50.362
	c6.595-0.435,13.197-0.821,19.804-1.25c-2.319-5.495-0.274-11.605,3.12-16.149c-3.388-4.687-1.797-10.81,0.609-15.546
	c-1.044-3.208-0.827-6.62,0.025-9.834c7.321-0.366,1.11-7.304-1.231-9.336C1542.606,1251.08,1536.414,1253.715,1530.261,1254.542
	 M1287.532,1258.632c-0.852,1.399-5.296,9.138-7.136,11.431c11.118,9.855,8.488,4.541,12.413,43.481
	c34.471-26.105,39.72-38.552,39.72-38.552C1312.998,1255.461,1290.226,1256.237,1287.532,1258.632 M379.833,1258.271
	c-1.627,4.622-0.972,3.115-7.005,6.831c1.057,39.161,2.07,78.322,3.12,117.476c6.626,0.454,13.265,0.821,19.891,1.268
	c4.509-3.409,8.298-17.641,8.124-24.895c0.802-0.839,1.616-1.653,2.424-2.462c3.392-37.064,8.938-56.453,17.417-92.612
	C405.127,1264.763,409.42,1258.271,379.833,1258.271 M1230.593,1258.899c-1.946,3.854-2.126,8.329-1.194,12.494
	c-6.728,11.608-10.406-6.337-11.282-9.125c-6.993-0.346-30.11,14.438-36.563,18.381c15.381,6.573,22.351,7.329,56.28,31.571
	c2.668-1.488,4.076-3.074,15.179,1.368c0.423-15.546,0.833-31.093,1.256-46.639c-7.403,0.151-10.029,5.442-18.07-8.671
	C1234.329,1258.483,1232.452,1258.682,1230.593,1258.899 M1601.123,1264.456c-0.429,31.086-0.827,62.179-1.256,93.271
	c14.912,8.908,29.831,17.815,44.749,26.723c-7.844-37.091-15.751-74.169-23.602-111.254
	C1612.977,1266.71,1606.357,1262.622,1601.123,1264.456 M337.956,1278.747c0.404,9.285,0.808,4.783-22.303,45.414
	c10.145,17.181,20.264,34.381,30.446,51.543c-0.211-35.848-0.367-71.702-0.646-107.549
	C341.524,1270.25,337.869,1274.01,337.956,1278.747 M429.412,1268.211c-25.803,120.021-10.977,67.407-14.291,105.678
	c20.295-11.208,40.609-22.371,60.904-33.567c1.882-19.517,2.409,5.619-8.709-53.451
	C440.758,1271.927,435.683,1268.723,429.412,1268.211 M1338.615,1288.643c-15.608,20.085-3.835,6.271-38.999,38.141
	c2.99-1.44,60.551-33.758,61.551-34.318c-4.96-3.332-9.939-6.633-14.906-9.946
	C1343.669,1284.503,1340.561,1285.939,1338.615,1288.643 M1138.646,1305.532c0.591,0.777,1.187,1.56,1.803,2.362
	c5.469-0.805,38.897,43.388-0.535,23.739c1.103,10.259,1.149,16.667-1.828,20.662c1.784,9.281,3.699,18.542,5.532,27.817
	c-1.038,1.436-2.07,2.878-3.095,4.326c1.007,9.747,2.064,19.487,3.102,29.24c4.202-1.43,8.634-2.275,12.706-4.047
	c18.515-15.47,19.157-14.814,105.392-63.092c-0.012-1.666-0.012-3.319,0-4.967c-0.001,0-29.668-9.579-29.669-9.579
	c-1.84-1.902-1.436-4.811-1.454-7.223c-22.519-16.521-60.867-37.24-60.867-37.24
	C1159.333,1293.467,1149.002,1299.521,1138.646,1305.532 M1460.082,1307.54c-3.55,0.379-7.099,0.721-10.636,1.1
	c-0.211,1.852-0.429,3.699-0.622,5.57c9.221,1.393,26.243,3.259,35.046,0.093C1481.501,1313.367,1462.634,1307.198,1460.082,1307.54
	 M1312.489,1339.577c-3.761,2.399-7.727,4.538-11.077,7.515c5.912,3.957,20.859,13.238,26.219,18.617
	c2.039-2.238,4.115-5.377,7.54-5.159c11.422-26.66,25.405-47.571,25.405-47.571
	C1344.421,1321.613,1328.259,1330.253,1312.489,1339.577 M1377.061,1321.961c-6.247,7.363-19.548,35.623-24.466,46.073
	c4.521,3.014,1.948,16.727,0.51,24.51c13.594,14.079,27.326,28.034,40.845,42.182c0.093-3.916,2.449-7.217,5.103-9.884
	c1.448,0.416,2.915,0.839,4.389,1.262c10.881-53.224,8.179-30.755,11.201-103.173c-0.839-0.429-1.666-0.845-2.474-1.243
	c-11.455,10.906-22.056,6.399-29.253-7.441C1380.952,1316.808,1379.087,1319.449,1377.061,1321.961 M1098.292,1331.564
	c-1.274,7.13-1.995,14.502-4.88,21.215c7.602-1.337,15.242-2.486,22.856-3.755c-0.006-3.27-0.006-6.527,0-9.784
	c-2.53-0.099-4.575-1.697-5.713-3.873c-2.455,0.187-4.898,0.398-7.341,0.615c-0.174-4.27,0.472-8.622-0.578-12.805
	C1099.479,1324.603,1098.658,1328.438,1098.292,1331.564 M1490.136,1332.366c7.124,3.947,14.309,7.782,21.464,11.686
	c0.423-4.979,0.833-9.952,1.249-14.925C1505.285,1330.265,1497.651,1330.98,1490.136,1332.366 M1443.23,1332.882
	c-0.012,1.225-0.019,2.455,0,3.711c21.75,15.751,43.506,31.49,65.262,47.235c1.05-11.388,2.07-22.782,3.114-34.176
	c-9.343-5.737-18.555-11.711-27.978-17.293C1470.177,1332.31,1456.694,1332.721,1443.23,1332.882 M1524.045,1334.735
	c-0.429,4.967-0.833,9.933-1.25,14.906c12.824,7.266,25.685,14.49,38.514,21.762c3.543-2.462,7.061-4.967,10.586-7.459
	C1555.945,1354.203,1539.995,1344.469,1524.045,1334.735 M290.789,1367.667c0.398,1.218,0.814,2.468,1.212,3.711
	c15.117,6.465,30.266,12.855,45.396,19.295c-0.846-10.903,6.528,3.756-27.966-55.316
	C303.221,1346.122,297.005,1356.895,290.789,1367.667 M1442.621,1340.329c-1.088,34.219-2.033,68.445-3.158,102.664
	c16.53,11.739,29.354-3.881,76.494-36.152c-16.34-12.576-21.128-13.71-11.873-19.947
	C1483.591,1371.378,1463.103,1355.857,1442.621,1340.329 M1522.801,1355.254c-0.839,11.593-1.66,23.192-2.493,34.791
	c6.21-0.081,12.438,0.174,18.642-0.112c18.816-9.503,15.292-10.155,19.276-15.409
	C1546.422,1368.09,1534.612,1361.669,1522.801,1355.254 M1087.538,1366.915c-8.212,18.39-27.389,48.547-41.629,71.876
	c6.982-6.982,44.865-63.441,50.462-71.745c-1.455-1.237-2.897-2.48-4.326-3.717
	C1090.534,1364.503,1088.645,1365.324,1087.538,1366.915 M1306.478,1368.854c0.584,2.263,1.193,4.519,1.852,6.776
	c6.774,1.207,7.976,6.242,7.447,13.122c-3.515,3.515-2.323,3.335-0.218,4.531c-2.602,3.392-1.032,2.559,0.118,3.748
	c3.06-2.943,9.813-7.533,7.036-10.468c0.056-1.89,0.709-3.841,0.286-5.669C1319.637,1374.691,1313.422,1370.141,1306.478,1368.854
	 M1572.548,1381.976c-1.622,1.877-3.475,3.574-4.873,5.638c-0.715,2.412-0.895,4.942-1.367,7.416
	c7.459-1.051,14.925-2.064,22.384-3.12c0.398-0.839,0.808-1.666,1.231-2.474C1584.135,1386.937,1578.329,1384.475,1572.548,1381.976
	z"/>
</svg>
