<?xml version="1.0" standalone="yes"?>
<svg xmlns="http://www.w3.org/2000/svg" xmlns:xlink="http://www.w3.org/1999/xlink" xmlns:svg="http://www.w3.org/2000/svg" xmlns:dc="http://purl.org/dc/elements/1.1/" xmlns:cc="http://web.resource.org/cc/" xmlns:rdf="http://www.w3.org/1999/02/22-rdf-syntax-ns#" width="901" height="853">
<path style="fill:#070806; stroke:none;" d="M0 0L0 853L901 853L901 0L0 0z"/>
<path style="fill:#262721; stroke:none;" d="M169 143L160 157C169.209 156.503 180.468 149.304 176 164L180 158L181 160L182 160L196 142L195 139C208.054 132.949 219.007 119.939 231 111.82C255.369 95.3237 280.889 81.6865 308 70.2314C428.359 19.3774 575.774 34.9366 678 118C674.771 120.202 680.893 121.662 683 121L675 123L675 124L714 126L714 125L711 125L712 123L704 114C695.343 110.717 678.836 99.0811 673 92L670 93C668.4 87.8603 663.386 86.4143 659.089 83.7716C649.209 77.6954 639.271 73.8344 629 68.7523C600.801 54.7999 570.828 43.3381 540 36.662C522.107 32.7871 503.891 31.4695 486 28C482.009 31.02 477.679 29.2443 473 29.0394C464.033 28.6467 454.976 29 446 29C441.606 29 436.617 30.0369 434 26C417.208 29.2565 399.906 29.3848 383 32.321C338.285 40.0869 294.723 55.596 255.285 78.1196C240.067 86.8113 227.901 98.3029 213.981 108.197C207.584 112.744 200.382 115.564 194.17 120.748C185.633 127.873 178.686 137.418 169 143z"/>
<path style="fill:#38382f; stroke:none;" d="M195 139L196 142C190.99 144.61 182.82 154.373 182 160L181 160L180 158L172.434 169.018L174.7 190L178 224L179 224L179 218L182 219C185.802 211.357 191.354 208.218 196.675 201.995C211.733 184.388 229.193 167.933 247.999 154.363C252.044 151.445 268.67 135.541 272 139L280 135L280 131L303 122L318 112L319 112L320 112L322 114C322.552 107.012 318.752 85.4117 327.005 84.527C330.667 84.1343 334.616 86.8294 338 88L336 86L336 85L340 82L347 85L348 82L352 83C356.026 78.889 360.761 80.6 366 79.7407C376.96 77.9429 389.203 70.1746 399 78C408.348 70.0915 424.38 70.4695 436 69.9606C453.86 69.1786 471.016 68.2519 489 69.0394C496.811 69.3814 504.169 71.9784 512 72L512 75C525.508 74.9731 541.273 80.0869 554 84.6883C559.355 86.6246 565.057 86.5148 568 92C584.658 93.4545 610.13 103.299 623 114L629 114L622 117L622 118C637.526 118 651.651 120.634 667 122.169C671.677 122.637 679.551 124.947 683 121C681.121 121.216 675.922 120.292 678 118C660.388 97.8393 631.09 87.7025 608.015 76.1644C599.323 71.8181 591.909 65.9576 582.714 62.2971C565.326 55.3743 547.889 52.9626 530 49.2507C444.99 31.6117 356.819 43.8462 279.001 82.662C248.065 98.0926 223.084 119.45 195 139z"/>
<path style="fill:#4a4044; stroke:none;" d="M399 78C390.712 69.0331 375.069 78.0892 365 79.7407C360.325 80.5075 354.896 78.5324 352 83L348 82L347 85L340 82L336 85L336 86C341.984 92.3888 349.646 98.9674 351 108L352 108L355 103L356 103L369 103.999L402 99.2824L416 100L456 96L456 99L460 99L460 96C474.546 96 488.575 96.5915 503.004 97.9969C508.402 98.5227 514.895 101.916 518 96L519 96L520 96C523.334 102.753 530.36 103.578 537 105.424C550.932 109.298 565.69 116.703 580 118L578 122C589.2 122 599.908 119.284 611 118.329C617.944 117.731 623.535 119.689 629 114L623 114C619.583 109.709 612.004 107.301 607 105.128C594.787 99.8235 581.544 92.619 568 92C566.135 86.2253 560.013 86.5009 555 84.6883C541.893 79.9495 525.876 74.8958 512 75L512 72C499.784 71.8976 487.344 68.7688 475 68.2053C461.2 67.5752 447.731 69.6711 434 69.9854C424.025 70.2137 406.052 69.6682 399 78z"/>
<path style="fill:#010120; stroke:none;" d="M335 111C346.04 119.132 349.93 132.917 366 132.999C370.807 133.024 377.323 132.995 378.508 126.999C380.553 116.65 363.978 118.404 359.015 115.258C352.713 111.264 352.057 104.917 348.583 99.0941C346.31 95.2853 340.459 90.4584 336.871 87.8033C333.197 85.0838 326.576 82.2549 322.603 86.0093C319.047 89.3699 323.256 102.818 322.576 108C319.991 127.682 322.414 147.309 319.194 167C318.29 172.53 318.58 179.821 315.69 184.776C313.248 188.964 307.636 189.655 304.014 192.429C299.822 195.639 296.934 200.301 292.996 203.816C285.375 210.617 272.512 216.942 271.13 228.089C269.33 242.595 283.284 249.839 296 246.275C303.136 244.275 308.382 239.231 315 236.318C320.121 234.064 326.808 239.905 330.392 233.852C335.176 225.772 329.628 209.403 330.039 200C330.658 185.884 334.347 171.98 334.961 158C335.653 142.208 333.005 126.785 335 111z"/>
<path style="fill:#4e4e45; stroke:none;" d="M416 100C412.576 96.0827 403.663 98.8546 399 99.5903C387.513 101.403 366.832 109.263 356 103L355 103C343.344 115.54 374.64 116.794 377.863 124.174C381.026 131.412 369.867 134.465 365 133.811C350.456 131.856 347.126 117.654 336 112L335 161L336 161L337 155L343 156L343 152L353.826 148.933L362.054 141.854L378 142.698L396 137.894L453 134.209L469.015 136.978L512 138L517 146L523 147L522 150C540.54 140.433 556.298 126.191 578 123L580 118C566.629 115.887 553.152 109.774 540 106C532.281 103.785 524.988 102.873 520 96L519 96L518 96C514.009 101.044 507.693 98.5991 502 97.7986C488.029 95.8339 474.134 96 460 96L460 99L456 99L456 96L416 100z"/>
<path style="fill:#262721; stroke:none;" d="M335 111L334 140L335 140L337 111L335 111z"/>
<path style="fill:#4e4e45; stroke:none;" d="M318 112L303 122L280 131L280 135L272 139L271 136C246.788 149.646 225.725 172.299 205.579 191.2C197.709 198.584 185.233 208.499 182 219L179 218C179 227.262 179.24 251.9 188 257L190 252L196 236C204.37 235.751 218.765 222.52 220 214C223.321 212.901 223.737 211.41 224 208C232.048 207.972 237.737 204.667 238 196C248.368 195.772 261.457 178.835 270 173C268.76 166.465 282.571 159.408 288 158L287 155L308 144C311.019 138.549 316.354 138.546 322 139C322 130.59 323.962 119.615 320 112L318 112z"/>
<path style="fill:#010120; stroke:none;" d="M580 122C517.093 135.019 463.038 199.379 449.67 261C445.269 281.284 448.051 299.952 448.961 320C450.587 355.832 447.071 403.805 486 421.819C497.101 426.955 510.021 428.098 522 429.711C557.209 434.454 575.063 403.842 578.714 373C581.75 347.355 572.121 325.39 563.225 302C559.292 291.661 555.7 279.688 546.961 272.274C531.521 259.176 514.82 258.466 496 261C497.634 251.197 503.665 240.802 508 233C511.684 226.368 512.528 218.708 517 212C523.885 201.672 535.478 194.575 544 187C561.55 171.4 586.297 159.926 610 154C614.729 152.818 619.974 156.006 624 155C636.866 151.783 653.366 156.569 664 161C668.948 163.061 678.414 160.604 680 161L679 158L656 153L634 144C637.41 143.737 638.901 143.321 640 140L630 142C628.955 134.888 622.149 134.021 616 134L613 126L621 124L609 124L609 122L617 122C606.146 117.32 588.952 128.747 580 122z"/>
<path style="fill:#262721; stroke:none;" d="M362 133L362 134L374 134L362 133z"/>
<path style="fill:#656758; stroke:none;" d="M343 152L343 156L337 155C331.501 170.31 331 185.894 331 202L332 202L332 193L333 193L333 196L337 196L346 192C345.746 184.585 351.397 184.68 357 182.406C367.867 177.996 378.367 175.362 390 174C392.067 167.192 399.251 169.42 405 168.571C419.08 166.492 433.707 158.356 448 161C453.508 157.444 461.343 162.53 464 154L500 164L505 161L505 162L502 162L504 166C510.588 161.36 519.951 154.609 523 147L517 146L512 138C497.243 134.711 483.878 137.598 469.015 136.931C463.299 136.675 457.884 134.079 452 134.079C426.752 134.079 402.52 138.283 378 142.441C372.522 143.369 366.58 140.57 361.13 141.6C354.656 142.822 351.194 150.808 343 152M308 144L287 155L288 158C282.677 158.777 266.797 166.638 270 173C259.619 177.939 249.289 194.969 238 196C237.452 203.999 231.565 207.915 224 208L220 214C217.966 221.903 204.053 235.46 196 236L190 252L186 257L189.838 273.985L188 285L184 289C187.712 297.723 178.456 299.525 176.174 306.174C169.385 325.951 160.737 343.797 160.66 365C160.643 369.797 159.165 382.639 155 384C155.215 392.913 166.242 409.269 154 416L152 424C155.566 430.329 154.092 437.099 154.019 444C153.922 453.053 155.069 462.988 156.431 472C157.294 477.718 155.375 484.494 161 488C159.131 497.669 166.831 505.603 170 514C165.736 517.743 170.133 525.015 172.34 529C178.541 540.193 187.353 553.796 188 567L193 567L202.231 583.701L210 592C216.265 595.517 224.342 606.961 226 614L233 620L250 642L262 649L262 650L259 651C263.289 656.572 266.371 661.58 274 662L274 667C280.872 669.64 289.962 673.058 295.942 677.363C301.955 681.692 303.293 687.863 312 686C313.42 688.725 324.028 695.855 320 698L320 699L337 701L337 703L340 702L340 706L351 711C351 706.212 346.303 703.303 343 700C335.018 692.018 326.489 685.546 318 678C309.064 670.056 295.039 655.118 291 643C287.794 633.382 288.483 622.932 286 613C284.801 608.206 282.678 593.288 283 592C278.514 588.318 276.078 586.143 270 586C269.158 580.541 265.339 575.627 260 574L261 568C250.558 563.257 240.335 549.481 235.934 539.015C233.24 532.609 234.574 522.973 226 520L228 511C219.316 502.975 216.266 486.342 217 475L207 448L208 446C202.713 439.02 212.333 424.455 213 416L208 417L210 380L214 382L216 374C211.355 367.869 216.668 353.331 220 347L220 346L218 340L222 338L223 338L226 340L224 330L224 307L229 308L239.122 293.737L254 266L250 266C251.906 257.237 260.871 242.555 268 237C268.29 238.346 269.638 241.353 271.25 238.667C272.533 236.529 270.093 233.314 270.056 231C269.996 227.326 273.561 220.689 276.111 218.111C284.427 209.703 294.972 200.93 304 193.083C307.436 190.097 314.372 189.36 316.278 184.917C320.35 175.423 320.443 162.1 321.028 152C321.231 148.487 323.222 143.672 321.667 140.25C319.268 134.974 308.857 139.673 308 144z"/>
<path style="fill:#262721; stroke:none;" d="M702 149L702 151L712 153L711 147L702 149M321 148L321 157L322 157L321 148z"/>
<path style="fill:#77786d; stroke:none;" d="M464 154C459.87 162.105 452.348 156.217 448 161C433.7 157.597 418.085 166.486 404 168.571C398.523 169.382 391.16 167.047 390 174C378.115 174.534 366.957 177.954 356 182.406C350.357 184.699 345.379 184.585 346 192L337 196L333 193L332 193C331.979 200.66 329.854 208.383 330.133 216C330.36 222.209 333.903 227.986 329.852 233.852C326.038 239.374 320.164 233.94 315 235.858C304.541 239.742 295.503 250.714 283 246.411C279.926 245.353 277.701 242.873 275.001 241.182C272.395 239.551 269.791 239.505 268 237C260.621 240.852 251.122 257.875 250 266L254 266C250.054 274.703 244.418 285.27 239.057 293.04C234.757 299.273 229.715 299.338 229 308L224 307L224 330L226 340L223 338L222 338L218 340L220 346L220 347C216.419 351.882 210.786 369.444 216 374L214 382L210 380L208 417L213 416C212.103 423.096 202.015 440.77 208 446L207 448L217 475C215.371 484.488 218.868 505.818 228 511L226 520C233.805 524.496 232.633 532.142 235.421 539.015C239.39 548.798 250.387 565.017 261 568L260 574C264.728 576.394 268.568 580.885 270 586C276.006 586 283.02 589.921 282 594C300.008 589.303 286.734 568.209 281 559L274 560L274 556C268.632 554.348 266.351 549.347 266 544L261 545C260.327 539.713 259.707 531.882 254 530L256 526L250 520L252 520C250.184 515.205 252.226 505.53 247 504L244 496L244 484L240 484L240 471L238 472L235 456L231 456L231 450L234 450L236 439C225.629 432.913 238.32 422.89 232 417L232 416L234 415L234 414C231.911 410.704 233.549 407.691 234.117 404C235.34 396.057 234.351 386.617 236.648 379.015C238.068 374.317 242.844 368.233 238 364C241.57 355.63 242.63 343.348 250 338C249.21 324.911 258.812 324.684 266.107 318.682C268.423 316.777 269.775 311.735 271 309L273 311L282 295C280.651 291.734 281.447 290.308 284 288C282.415 283.543 283.278 280.467 288 279L298 264C308.521 263.168 306.924 259.225 313 253L312 250C319.952 250.407 321.077 250.583 328 247L328 244L325 244L325 243L335 240L332 233L335 234L335 231L352 227L351 221L360 222L364 221L364 216L380 213L384 211L397 207L416 206L416 203C419.696 202.882 422.864 202.882 424 199L438 198L442 202L464 199L466 205L472 201L472 207L473 207L498.667 173L505 162L505 161L500 164C490.947 156.706 474.787 155.524 464 154z"/>
<path style="fill:#5e5d59; stroke:none;" d="M550 154L542 171C547.758 168.61 556.137 164.272 558 158L553 154L550 154z"/>
<path style="fill:#4a4044; stroke:none;" d="M594 158L594 159L603 160L602 162L636 180L636 183L653 192L658 208L658 209L658 210C663.619 216.154 671.133 223.712 680 224L695 251L697 250C700.963 258.39 708.72 279.718 718 280C718.152 287.08 720.723 289.689 726 294L723 298C730.045 298.421 735.578 293.162 742 290.9C753.751 286.762 761.75 285.992 774 286L774 285L771 284L772 282L771 279L766 279L768 276C761.09 265.577 759.217 247.204 747 241L749 239C739.801 225.135 732.504 210.482 720.815 197.965C716.469 193.312 710.641 191.513 706.184 187.074C699.382 180.299 688.611 167.55 679 166C678.211 159.58 664.319 160.106 659.089 158.795C636.076 153.024 617.072 155.005 594 158z"/>
<path style="fill:#5e5d59; stroke:none;" d="M551 184L558 181C560.26 186.761 566.988 186.068 571.714 189.271C583.708 197.399 596.417 204.896 608.985 212.399C614.36 215.608 616.069 220.686 623 220L627 224C627.763 230.639 639.583 239.265 646 240C649.197 251.217 660.556 259.473 668 268L666 268C670.014 274.841 674.819 284.251 682 288L687 304L684 305L694.016 320L698 335L699 335C701.063 319.765 713.171 308.504 725 300L723 298L723 297L726 294C721.749 289.122 718.324 286.977 718 280C709.554 279.421 711.496 273.983 708.231 268.039C704.941 262.047 700.845 255.729 697 250L695 251L680 224C670.983 223.321 664.665 214.936 658 210L658 209L658 208L653 192L636 183L636 180L602 162L603 160C588.975 157.709 581.046 165.384 568.911 170.366C562.301 173.079 553.128 176.376 551 184z"/>
<path style="fill:#38382f; stroke:none;" d="M678 163L678 164L679 166C684.17 166.544 684.349 171.027 688.333 173.5C706.481 184.764 725.418 200.775 737.167 220C739.895 224.464 750.81 235.557 747 241L768 276L766 279L771 279L769 281L772 282L771 284L784.91 292.46L797 303C802.089 278.323 786.898 258.982 773.964 239.816C769.258 232.843 768.863 224.909 764.56 218C755.688 203.755 743.052 191.212 736 176L730 176L725 170L726 168C709.96 163.115 694.62 163 678 163z"/>
<path style="fill:#262721; stroke:none;" d="M725 169L725 170L730 176L736 176C739.426 188.233 751.536 200.733 758.989 211C765.167 219.511 766.539 228.314 771.624 236.985C776.453 245.22 783.822 251.38 788.194 260C792.064 267.63 794.449 275.969 796.865 284.039C798.061 288.035 796.299 291.281 800 294C808.002 270.356 818.952 239.17 801.844 216.09C792.749 203.82 778.476 196.689 766.41 187.886C756.126 180.383 738.575 165.57 725 169M133 184C131.894 191.012 126.523 191.04 121.09 193.823C113.422 197.75 99.8976 204.6 94.6219 211.459C92.1834 214.629 94.8417 221.458 95.7593 225C99.1416 238.056 104.471 251.784 112 263L117.503 247.576L133 220L131 220C138.25 211.494 143.692 196.995 154 192L160 175L133 184z"/>
<path style="fill:#38382f; stroke:none;" d="M160 181L154 192C144.391 194.464 135.982 211.927 131 220L133 220C125.438 231.788 114.425 246.511 113.356 261C113.028 265.444 116.594 268.688 116.562 273C116.538 276.385 113.974 278.977 115.164 282.424C117.108 288.062 122.048 292.083 123.468 298C126.367 310.087 122.644 316.68 121 328C128.725 324.861 127.149 318.862 129.001 312C133.108 296.781 142.155 282.499 145 267L148 269L147 266L150 267C152.498 255.056 162.957 250.733 167.049 240.486C168.458 236.959 166.02 230.88 166.001 227C165.936 213.788 166.282 192.816 160 181z"/>
<path style="fill:#77786d; stroke:none;" d="M557 181L551 184L552 182C537.838 184.014 518.179 206.523 513 219L521 214L521 222C531.685 218.916 541.475 226.608 552 228L552 232L560 232L561 232L562 232L565 235C562.866 240.944 570.937 241.505 574 238L575 238L576 238L580.6 250.454L607 268C603.85 270.148 610.004 271.859 612 272L624 296L629 296L630 296C635.611 293.178 636.919 300.196 639 304L636 305C639.992 309.892 643.785 313.352 644 320C648.349 322.273 657.059 339.313 653 343L653 344L657 344C657.324 350.237 658.761 368.237 665 370L665 374L666 374L669 372L670 380L672 379L674 387L674 388L673 392C670.392 394.382 671.846 396.701 674 399C668.491 407.357 676.193 421.189 677.255 430.17C678.197 438.125 675.625 446.152 675 454L672 454C671.432 457.582 670.492 458.943 667 460L666 466C671.016 467.584 673.015 473.671 670 478L671 482C667.001 482.646 665.488 484.283 664 488L669 488C664.964 492.542 664.017 496.025 664 502L660 502L661 506L653 504L653 502L657 500L656 491L655 491L649 506L644 510C659.596 514.251 656.603 534.341 656.124 547C656 550.281 653.925 555.522 656.032 558.436C659.12 562.708 667.896 560.718 672 559.482C675.247 558.504 678.163 556.745 681 554.924C685.258 552.191 689.879 549.715 693.941 546.71C699.893 542.306 699.566 533.115 705 528C704.732 523.742 707.675 516.216 702 515C706.664 508.969 704.459 506.787 704 500C712.315 499.352 716.829 484.899 714 478L719 476L720 456L720 455L718 452L724 442C713.337 435.248 701.821 435.626 694.13 423.985C675.799 396.243 697.849 364.813 697.855 336C697.857 323.854 690.781 314.275 684 305L687 304L682 288L666 268L668 268L646 240C639.933 238.744 628.292 230.221 627 224L623 220L606.999 210.834L579.487 192.819L557 181z"/>
<path style="fill:#38382f; stroke:none;" d="M500 191L501 199L502 199L500 191z"/>
<path style="fill:#77786d; stroke:none;" d="M499 192L495 199L501 199L501 192L499 192z"/>
<path style="fill:#4a4044; stroke:none;" d="M330 195L330 212L331 212L330 195z"/>
<path style="fill:#89887a; stroke:none;" d="M436 198L424 199L416 203L416 206L397 207C393.437 206.476 385.745 207.649 384 211C381.303 210.146 380.614 210.149 380 213L364 216L364 221L360 222L351 221L352 227C347.156 227.117 336.513 228.978 335 234L332 233L335 240L325 243L325 244L328 244L328 247L312 250L313 253C306.287 257.356 308.482 262.667 298 264L288 279C282.758 279.889 281.566 283.525 284 288C280.781 289.876 279.968 291.784 282 295L273 311L271 309C269.294 311.706 268.337 315.916 266.107 318.107C259.548 324.553 247.616 324.281 250 338C242.844 341.533 240.286 356.495 238 364C242.192 369.535 237.67 373.428 236.394 379.015C233.745 390.606 236.283 404.967 232 416L232 417C235.836 424.931 225.234 434.599 236 439L234 450L231 450L231 456L235 456L238 472L240 471L240 484L244 484L244 496L247 504C252.108 504.851 250.879 520.22 250 520C251.015 523.764 252.078 525.352 256 526L254 530C259.283 532.884 259.96 539.501 261 545L266 544C266.164 549.521 268.022 554.987 274 556L274 560L281 559C284.943 568.326 290.761 573.217 290 584L291 584L298 560L286 549L288 545L282 544L278 526C273.9 523.904 266.779 515.855 272 512L270 508C266.439 508.137 265.089 507.427 264 504C260.298 503.747 251.305 499.885 257 496L256 494L259 493C254.474 488.206 253.796 472.666 254 466L251 465L252 462L253 450L257 444L253 444L254 439C246.469 431.15 249.038 424.13 250.741 414.83C251.474 410.829 250.237 407.439 254 405L254 404L246 404C249.66 396.93 253 392.602 252 384L258 384L258 383L256 382L259 381L259 368L262 368L262 367C258.349 360.434 261.105 354.762 262 348C266.33 346.517 266.748 342.612 269.271 339.147C274.047 332.589 280.518 329.611 280 320L283 321L285 319L285 318L280 318L280 317L296 305L297 292C301.896 289.921 308.929 279.272 310 274C316.548 272.873 325.801 262.569 326 256C339.32 255.608 344.03 247.318 356 243L354 240L356 236L369 232L372 235L372 230L379 230L384 228L381 226L381 225C392.562 224.504 400.764 222.657 410 216L420 218L420 221L424 215L448 215L448 212L454 215L465 214L462 224C468.024 220.52 472.696 207.77 472 201L466 205L464 199C459.945 197.896 444.737 198.861 442 202L438 198L436 198z"/>
<path style="fill:#464056; stroke:none;" d="M487 207L485 213L489 207L487 207z"/>
<path style="fill:#95958d; stroke:none;" d="M448 212L448 215L424 215L420 221L420 218L410 216C399.751 220.996 393.02 224.051 381 225L381 226L384 228L379 230L372 230L372 235L369 232L356 236L354 240L356 243L326 256C325.564 262.355 316.021 272.129 310 274L297 292L296 305C285.89 306.09 286.793 312.491 280 317L280 318L285 318L285 319L283 321L280 320C280.06 328.917 274.111 332.315 269.271 338.313C266.49 341.76 266.028 345.708 262 348C260.46 354.91 258.498 361.27 262 368L259 368L259 369L259 381L256 382L258 383L258 384L252 384L246 404L254 404L254 405L251 405C251 415.569 243.145 431.297 254 439L253 444L257 444L253 450L252 462L251 465L254 466C253.173 471.539 254.524 489.772 259 493L256 494L257 496L254 496C254.839 501.76 258.457 503.832 264 504C264.669 507.855 266.207 508.723 270 508L272 512C265.129 513.48 273.525 525.168 278 526L282 544L288 545L286 549L298 560L301 562C304.717 553.28 315.582 543.166 324 539.043C327.683 537.239 337.166 534.55 336.534 529.093C336.107 525.405 330.729 524.888 328.509 522.582C325.184 519.127 325.366 516.417 320 516L320 512L315 512L316 506C312.218 503.075 310.219 498.78 310 494C303.089 485.822 305.184 478.782 307 469L301 468L305 456L302 455L304 453L304 452L302 451L302 450L304 448L294 438L297 437L296 433L300 433C296.071 427.681 291.868 423.416 298 418L300 404L292 404L288 394L292 394L292 390L288 390L288 383L302 360C297.923 352.466 305.778 350.069 312 350L310 347L310 346C313.332 342.211 314.608 340.176 320 340L322 332L324 328L328 330L326 321L326 320L336.556 317.385L344 306L343 303L352 301L356 291L360 292L370 284L373 293C374.395 288.591 375.57 283.629 375.91 279C376.53 270.55 383.512 257.837 391.736 270.044C398.08 279.46 393.133 290.802 404 299L408 294L411 300C412.096 297.386 412.829 294.51 414.398 292.131C421.169 281.862 431.823 289.686 441 287L441 289L444 291L445 291C448.294 277.204 448.418 263.495 453.369 250C456.57 241.272 463.845 231.589 462 222L465 214L454 215C453.271 211.597 451.194 212.013 448 212z"/>
<path style="fill:#89887a; stroke:none;" d="M505 242C515.234 238.035 536.19 247.123 539 258L540 258L540 254L564 260C564.728 264.953 567.507 265.77 572 267L572 268L564 268L564 269L567 272L575 273L575 278L592 287C600.307 282.474 606.633 299.391 614 302L614 306C611.133 308.736 617.796 314.223 619.73 316.911C627.179 327.264 628.069 339.325 639 347L635 350L635 351L642 356L648 384L646 384L649 390L651 406L649 408L656 426L652 426L652 432L652 433L655 444L646 449C646.771 455.341 649.193 472.228 643 476L646 479L640 505L643 504L645 507L634 511L636 513L633 515L649 506L655 491L656 491L657 500L653 502L653 504L661 506L660 502L664 502L669 488L664 488L671 482L670 478C674.059 474.398 670.973 466.863 666 466L667 460C670.911 459.348 671.7 457.864 672 454L675 454C675.997 446.277 678.834 437.073 677.451 429.285C675.763 419.773 670.007 408.477 674 399L673 392L674 388L674 387L672 379L670 380L669 372L666 374L665 374L665 370C658.982 367.228 657.674 350.589 657 344L653 344L653 343L656 343C653.957 336.543 650.712 322.112 644 320C643.919 313.169 640.995 309.424 636 305L639 304C637.609 300.754 634.851 290.981 630 296L629 296L624 296L618.147 286.857L612 272L607 268L581.303 250.454L576 238L575 238L574 238C570.553 240.611 563.293 241.014 565 235L562 232L561 232L560 232L552 232L552 228C542.393 225.859 530.616 218.011 521 222L521 214C512.004 217.035 503.363 232.585 505 242z"/>
<path style="fill:#464056; stroke:none;" d="M291 225L293 229L294 229L294 224L291 225z"/>
<path style="fill:#656758; stroke:none;" d="M290 226L287 235L297 234L297 232L293 226L290 226z"/>
<path style="fill:#4a4044; stroke:none;" d="M270 227L270 235L271 235L270 227z"/>
<path style="fill:#262721; stroke:none;" d="M202 753C208.721 755.329 215.007 762.345 220.865 766.559C229.388 772.689 238.914 777.355 247.83 782.974C255.393 787.74 263.647 793.181 273 792C277.662 799.906 290.008 802.039 298 805.421C323.71 816.3 350.688 822.994 378 828.449C436.288 840.09 493.398 834.118 551 822.514C565.553 819.582 578.869 816.563 593 811.413C597.951 809.609 605.645 807.981 609.386 804.009C611.984 801.251 609.608 796.435 610.302 793.039C611.723 786.093 614.47 773.859 618.738 768.148C623.095 762.319 631.874 766.343 636.995 762.107C654.045 748.005 651.511 725.113 650 706L649 706L649 709L648 709L647 706L618 726L618 724L576 744L576 742L568 744L570 746L570 747L559 748L558 748L553 749C546.025 760.024 536.378 772.263 532.927 785C531.031 792.001 533.786 805.516 528.732 810.722C523.378 816.239 516.911 812.856 511 810.424C499.317 805.618 487.686 799.227 476 794.843C470.695 792.852 464.679 795.545 460 792L459 792L458 792C454.585 797.123 452.604 796.247 448 794L448 798L404 794L404 790L400 793L322.17 769.623L292 757L294 755C284.868 751.779 270.889 749.433 266 740C250.642 739.012 236.609 725.386 224.999 716.495C196.675 694.803 172.833 667.145 152.229 637.996C144.947 627.693 134.937 617.513 130 606L128 608L120 592L122 592L107 561C110.225 555.906 105.33 551.697 103.243 546.985C99.117 537.668 95.4885 526.079 94 516L96 516L98 520C97.3064 515.282 96.9505 507.741 92 506L87 464L86 464L86 472L85 472L84.0394 419L86.9313 405.961L86.4529 385L90.1489 361L90 352C91.4438 346.874 95.968 336.914 91 333L91 332C93.7675 331.395 93.5766 330.711 93 328L96 330C93.0614 324.386 86.832 319.427 85.4761 313C83.6622 304.402 95.8336 287.353 103 284L88 232C81.7278 233.124 77.775 250.978 74.7778 257C60.9049 284.875 51.977 316.499 46.6111 347C36.374 405.19 34.4356 467.388 50.3056 525C55.8755 545.22 65.5561 564.371 73.4167 584C80.0965 600.68 87.0575 619.397 96.6667 634.611C117.217 667.149 140.783 696.783 168 724C175.637 731.637 184.007 738.701 192.389 745.528C195.307 747.904 201.428 749.069 202 753z"/>
<path style="fill:#95958d; stroke:none;" d="M504 240L496 261C501.046 260.385 505.831 258.121 511 258.259C533.27 258.854 552.414 274.921 562 294L563 294L565 291L564 296L565 296L566 292C572.45 295.769 573.611 299.029 572 306C581.605 307.082 585.499 318.003 588 326L600 322L601 322L602 322C603.821 327.249 601.195 330.462 596 332L602 341L605 340L608 368L608 369L612 369L612 374L617 375L616 382C618.04 387.753 625.576 393.486 622 400L624 410L620 410L624 417C613.478 419.55 613.326 428.531 624 432C619.325 438.678 622.954 454.424 627 461L620 464L616 472L616 464L615 464L612 477L615 478L610 504L614 507L612 510L606 508C604.285 511.335 603.413 515.865 599 515L595 518L596 521L590 521C601.635 538.085 602.534 554.646 610 573L611 573C610.172 567.735 611.457 565.665 616 563L622.032 554.857L630 540L629 537C632.096 534.294 633.811 518.151 633 514L636 513L634 511L645 507L643 504L640 505L646 479L643 476C649.209 474.676 647.614 453.606 646 449L655 444L652 433L652 432L652 426L656 426L649 408L649 407L651 406L649 390L646 384L648 384L642 356L635 351L635 350L639 347L621.12 317.83L614 306L614 302C608.764 299.323 597.994 280.73 592 287L575 278L575 273L567 272L564 269L564 268L572 268L572 267C567.839 265.458 565.186 264.537 564 260L540 254L540 258L539 258C537.275 247.184 514.594 236.9 505 242L504 240z"/>
<path style="fill:#9e9e8d; stroke:none;" d="M471 241L466 256L475 257L471 241z"/>
<path style="fill:#4a4044; stroke:none;" d="M469 243L469 246L470 246L469 243z"/>
<path style="fill:#534c68; stroke:none;" d="M473 245L473 248L474 248L473 245z"/>
<path style="fill:#5e5d59; stroke:none;" d="M501.333 245.667L501.667 246.333L501.333 245.667z"/>
<path style="fill:#4a4044; stroke:none;" d="M453.333 249.667L453.667 250.333L453.333 249.667z"/>
<path style="fill:#464056; stroke:none;" d="M452.333 252.667L452.667 253.333L452.333 252.667z"/>
<path style="fill:#4e4e45; stroke:none;" d="M498.333 252.667L498.667 253.333L498.333 252.667z"/>
<path style="fill:#464056; stroke:none;" d="M475 253L475 257L476 257L475 253z"/>
<path style="fill:#534c68; stroke:none;" d="M465.333 254.667L465.667 255.333L465.333 254.667M497 255L497 258L498 258L497 255z"/>
<path style="fill:#5e5d59; stroke:none;" d="M507 258L507 259L511 259L507 258M501 259L501 260L504 260L501 259z"/>
<path style="fill:#656758; stroke:none;" d="M515 259L515 260L521 260L515 259z"/>
<path style="fill:#adada1; stroke:none;" d="M462 264L461 283C469.184 281.634 471.062 266.385 462 264z"/>
<path style="fill:#38382f; stroke:none;" d="M383 265L383 266L388 266L383 265z"/>
<path style="fill:#4a4044; stroke:none;" d="M147 266L148 269L145 267C140.947 280.444 134.367 292.878 130.245 306.17C127.65 314.542 129.307 322.964 121 328L126 308L124 308C123.917 317.235 119.41 322.081 114 329C126.804 333.683 106.567 352.627 114 360L108 372L112 372C104.799 391.256 112.844 415.881 104 434L108 434L110 464C104.625 468.698 112 485.206 112 492L116 496L120 496C120.808 501.999 126.717 513.303 122 518L140.724 574.999L143 591L145 590C149.684 601.246 157.271 617.841 165.379 626.826C169.032 630.874 174.843 631.267 178.251 635.228C189.638 648.465 199.615 663.642 212.054 675.942C217.851 681.674 226.855 683.742 232 690L228 693L249 709C255.886 713.319 261.166 719.668 268.005 723.715C308.298 747.561 355.827 764.15 402 771.439C415.587 773.584 430.169 778.544 444 777L442 780L446 779L446 782L450 781L450 779L392 741L385 738C382.739 738.373 377.438 738.494 379 735L379 734L352 732C349.927 725.788 344.202 727.778 339 726.53C334.32 725.408 331.017 721.976 326.675 720.509C321.187 718.655 316.701 720.375 312 716C304.882 714.365 297.845 706.463 291.961 702.089C282.255 694.873 264.157 693.413 262 679C244.356 678.842 230.901 664.427 221.055 651.271C215.868 644.34 213.277 636.999 205 633L207 631L194 619L193 611L183 604C184.738 592.471 177.056 593.798 172.228 586.852C167.396 579.901 162.864 569.949 160 562L162 562L162 560L156 558L157 553C150.027 546.915 146.646 531.781 143.67 523C133.983 494.42 130.42 464.026 128.877 434C128.367 424.073 132.574 408.967 128 400L135 392C130.942 388.764 134.66 380.293 136 376C129.758 371.696 138.284 348.631 140 342C137.185 335.44 143.543 330.757 146.584 325.816C151.643 317.597 156.238 303.509 154 294L157 293L157 292C152.818 288.778 149.515 285.539 149.098 280C148.726 275.064 151.837 269.139 147 266z"/>
<path style="fill:#010120; stroke:none;" d="M367 351C345.691 353.709 328.561 357.717 317.123 378.039C311.356 388.285 308.302 403.813 321.004 410.558C335.216 418.105 349.26 405.41 359.039 396.575C364.167 391.942 375.484 385.322 378.836 379.856C386.546 367.281 381.422 345.099 382.039 331C382.443 321.794 385.924 313.203 386 304C390.892 308.352 393.553 314.241 399.039 318.19C404.938 322.435 411.657 324.936 419 324.981C423.988 325.011 428.3 322.663 425.562 317.059C422.133 310.042 412.35 315.13 407.228 309.852C402.091 304.558 395.828 289.214 393.729 282C391.333 273.761 393.158 262.721 380.059 266.318C374.022 267.975 375.603 280.896 374.753 286C371.166 307.53 367 329.14 367 351z"/>
<path style="fill:#464056; stroke:none;" d="M448 266L448 271L449 271L448 266z"/>
<path style="fill:#534c68; stroke:none;" d="M469.333 269.667L469.667 270.333L469.333 269.667z"/>
<path style="fill:#adada1; stroke:none;" d="M492 279L494 287L498 287L505 270C499.213 270.758 494.536 273.689 492 279z"/>
<path style="fill:#464056; stroke:none;" d="M461 271L461 275L462 275L461 271z"/>
<path style="fill:#656758; stroke:none;" d="M393 272L393 283L394 283L393 272z"/>
<path style="fill:#38382f; stroke:none;" d="M466 274L466 278L467 278L466 274M460 276L460 281L461 281L460 276z"/>
<path style="fill:#534c68; stroke:none;" d="M491.333 277.667L491.667 278.333L491.333 277.667z"/>
<path style="fill:#010120; stroke:none;" d="M809 278C802.944 285.432 798.31 293.316 797 303C788.011 298.719 784.708 289.237 774 286.599C747.283 280.016 709.146 302.131 700.242 328C693.971 346.218 691.492 366.061 688.701 385C686.687 398.665 685.909 415.373 695.532 426.83C704.34 437.318 715.374 437.958 728 439.575C732.215 440.115 740.302 438.234 741.281 444.058C742.505 451.345 737.776 459.078 736.286 466C731.866 486.529 722.976 505.305 711.951 523C706.304 532.063 701.252 541.312 691.996 547.361C683.458 552.941 672.017 562.678 661.005 560.502C653.308 558.982 656.13 552.673 656.402 547C656.783 539.061 657.52 527.699 655.581 520.004C653.763 512.792 646.116 508.355 639.174 511.564C620.476 520.208 637.736 547.856 636.581 561C635.369 574.786 616.105 590.091 606 598C606.243 568.633 609.404 530.737 580.996 511.703C568.584 503.387 550.862 506.893 538 511.566C507.79 522.541 468.202 546.345 459 579C443.874 564.533 423.72 550.184 406.424 538.361C373.976 516.18 326.361 525.689 302.974 557.171C296.258 566.21 294.016 575.596 290.606 585.985C289.367 589.762 285.783 591.99 285.148 596.015C274.578 663.027 346.504 701.169 388.576 738.171C401.641 749.661 417.205 758.362 431.961 767.596C436.678 770.548 442.274 776.919 447.961 777.462C451.373 777.788 455.657 774.909 459 774L459 772L451 768L453 765C422.109 750.386 399.847 725.95 372.711 706.47C356.969 695.17 344.047 682.475 330 669.039C322.592 661.954 313.855 655.19 308.894 646C285.1 601.921 311.484 544.955 360 534.669C382.487 529.902 397.903 549.065 413.576 560.7C422.312 567.185 432.278 572.156 440.999 578.613C449.284 584.746 453.004 595.886 464.957 594.938C472.542 594.335 469.982 586.063 471.84 581C475.359 571.408 482.232 564.092 488.82 556.576C501.856 541.706 522.368 531.186 540 522.908C547.68 519.302 557.375 515.285 566 517.633C588.946 523.88 593.903 552.66 594.001 573C594.069 587.13 593.221 600.836 592 615C607.642 617.222 626.195 597.996 635.335 586.989C639.118 582.433 644.75 573.636 650.171 571.198C655.961 568.593 666.406 571.048 673 569.83C684.457 567.714 697.721 559.289 706.671 552.046C726.047 536.365 740.039 504.095 747.54 481C750.884 470.704 751.149 458.097 757.247 449.019C763.282 440.034 777.788 439.918 785.585 431.625C789.941 426.992 790.493 420.491 793.633 415.285C803.76 398.5 815.908 381.127 817.83 361C818.605 352.885 816.067 345.079 816 337L815 337L813 339C816.442 330.336 823.759 322.746 828.25 314.486C830.98 309.465 829.789 304.851 824 304C823.694 308.469 822.456 310.835 818 312L820 296L816 292C812.487 293.842 812.116 296.193 812 300L810 300C810.263 290.932 813.15 286.827 809 278z"/>
<path style="fill:#77786d; stroke:none;" d="M492 279L493 288L498 288L498 287L494 287L492 279z"/>
<path style="fill:#4e4e45; stroke:none;" d="M154 294C155.7 303.585 151.424 318.952 145.37 326.675C142.679 330.109 135.901 337.717 140 342C137.004 349.836 135.969 358.774 134.389 367C133.705 370.561 131.492 375.034 136 376C134.36 379.58 130.054 390.918 135 392L128 400C132.452 412.443 128.756 431.638 129.366 445C130.43 468.318 135.548 490.404 140.576 513C142.734 522.701 147.043 530.949 150.431 540.039C152.281 545 151.955 550.086 157 553L156 558L162 560L160 562C161.758 569.616 167.409 581.501 172.228 587.683C177.43 594.357 183.422 592.88 183 604L193 611L194 619L205 633C225.751 647.298 231.624 678.913 262 679C263.075 693.299 287.946 700.331 298.17 707.631C302.258 710.55 306.94 716.093 312 716C315.308 720.651 319.985 719.203 324.907 720.278C328.854 721.14 332.114 724.534 336.004 725.906C341.992 728.017 348.432 725.564 352 732L379 734L379 735L377 736C379.733 738.574 381.374 738.966 385 738L392 743C385.982 728.943 363.673 718.464 352 709L340 706L340 702L337 703L337 701L320 699L320 698L323 698L312 686C303.732 687.088 302.482 681.679 296.857 677.363C291.355 673.144 280.694 668.602 274 667L274 662C269.139 661.872 256.632 650.716 262 650L262 649L250 642C249.656 634.092 237.599 626.404 233 620L226 614C225.072 607.179 216.575 594.222 210 592L202.231 582.892L193 567L188 567C189.234 555.37 178.63 539.932 173.465 530C170.98 525.221 166.364 519.107 170 514L161 488C156.677 483.912 157.855 479.43 156.982 474C155.431 464.347 153.915 453.67 154.055 444C154.154 437.121 156.391 430.041 152 424L154 416C166.879 411.571 155.409 391.533 155 384C159.806 383.162 160.795 370.157 160.822 365C160.932 344.088 169.736 326.632 176.174 307.09C178.275 300.711 189.137 297.113 184 289L188 285L187 280C177.3 280.115 176.637 288.394 168.999 292.768C164.151 295.544 159.182 293.19 154 294z"/>
<path style="fill:#534c68; stroke:none;" d="M446 281L446 295L447 295L446 281z"/>
<path style="fill:#464056; stroke:none;" d="M538.333 281.667L538.667 282.333L538.333 281.667z"/>
<path style="fill:#534c68; stroke:none;" d="M461 283L461 284L464 284L466 288L465 283L461 283z"/>
<path style="fill:#adada1; stroke:none;" d="M360 292L356 291L352 301L343 303L344 306L336.516 316.613L326 320L326 321L328 330L324 328L322 332L320 340C314.44 340.066 312.906 341.384 310 346L310 347L312 350C305.932 350.021 296.629 352.289 302 360L288 383L288 390L292 390L292 394L288 394L292 404L300 404L298 418C290.94 422.124 295.648 428.729 300 433L296 433L297 437L294 438L304 448L302 450L302 451L304 452L304 453C302.14 454.86 302.434 455.449 305 456L301 468L307 469C304.948 477.613 301.894 487.613 310 494C309.892 498.784 311.585 503.711 316 506L315 512L320 512L320 516C324.392 516.698 335.718 526.739 337 531L365 525L363 523L365 522L364 521L356 522L356 521L358 520L357 518L352 514L350 515L349 511L346 504C335.641 503.878 338.228 497.071 332 492L336 488L336 484C324.361 481.202 330.742 467.235 320 462L320 454L324 454L317 448C318.831 438.295 318.498 426.988 308 425L310 419L302 418C304.346 414.089 311.164 405.041 315 406C313.673 401.893 310.896 397.427 311.267 393C312.467 378.679 329.352 360.153 342 354.959C349.173 352.014 359.229 352.464 367 351L372.571 296.039L370 284L360 292z"/>
<path style="fill:#534c68; stroke:none;" d="M374.333 286.667L374.667 287.333L374.333 286.667z"/>
<path style="fill:#b8b3bd; stroke:none;" d="M411 300L408 294C400.922 295.972 403.243 307.982 408.083 311.523C412.129 314.483 419.856 312.571 425 315C425.871 311.427 425.656 309.285 422 308L422 300L432 302L441 294L438 306L445 305L446 289L445 289L445 291L444 291C443.487 288.525 443.396 288.425 441 289L441 287C427.249 290.151 415.968 281.107 411 300z"/>
<path style="fill:#95958d; stroke:none;" d="M461 287L460 290L461 287z"/>
<path style="fill:#adada1; stroke:none;" d="M559 290C560.851 307.059 573.116 323.303 577.296 340C583.032 362.905 576.838 384.182 571 406L576 405L576 423C578.326 427.049 578.924 429.605 584 430L584 432L580 432L584 436L583 440C589.081 445.919 576.754 456.011 571 458L571 466C568.023 468.079 564.89 472.994 568 476L558 487L560 496L556 496L556 497L567 498L567 499L562 501L564 504L560 505L560 506C566.026 506.309 575.046 508.023 579.999 511.573C585.656 515.627 588.24 522.158 596 521L595 518L599 515C603.569 517.374 604.661 511.556 606 508L612 510L614 507L611 506L610 504L615 478L612 477L615 464L616 464L616 472C619.766 470.085 620.459 468.141 620 464L627 461C623.498 453.507 619.83 439.552 624 432C614.041 427.441 613.764 420.149 624 417L620 410L624 410L622 400C626.993 395.229 618.254 386.392 616 382L617 375L612 374L612 369L608 369L608 368L610 367C605.92 361.617 603.508 346.555 605 340L602 341L596 332C601.617 331.075 604.709 327.302 602 322L601 322L600 322L588 326C586.269 317.57 581.82 306.544 572 306C574.409 299.239 572.963 294.836 566 292L565 296L564 296L565 291L563 294L562 294L561 290L559 290z"/>
<path style="fill:#4e4e45; stroke:none;" d="M373.333 292.667L373.667 293.333L373.333 292.667z"/>
<path style="fill:#c7c5b2; stroke:none;" d="M439 294L432 302L422 300L422 308C425.421 310.018 425.499 312.207 425 316C431.478 324.742 417.707 326.24 412 324.749C399.486 321.481 395.751 309.742 386 304C385.999 316.41 382.437 328.503 382.129 341C381.85 352.279 385.239 366.371 380.081 376.995C377.334 382.654 371.098 383.861 366.83 388.105C358.065 396.822 344.116 414.383 330 413.336C323.424 412.848 318.998 408.732 314 405L313 405L302 418L310 419L308 425C318.692 427.674 317.352 438.125 317 448L324 454L320 454L320 462C328.676 468.289 325.148 482.533 336 484L336 488L332 492C337.399 498.562 335.758 503.964 346 504L349 511L350 515L352 514L357 518L356 521L356 522L365 522L363 523L363 524L393 530.904L418.999 549.701L459 579C467.279 548.121 508.588 522.103 537 511.595C545.866 508.316 555.185 507.286 564 504L562 501L567 499L567 498L556 497L556 496L560 496L558 487L568 476C566.062 472.245 568.247 468.825 571 466L571 458C576.677 456.763 591.19 444.855 583 440L584 436L580 432L584 432L584 430L576 423L576 405L571 406L572 400L571 400C564.128 422.101 542.258 431.678 521 430L527 449C524.494 451.754 520.715 453.609 518.558 456.557C513.269 463.786 513.286 469.918 505.026 475.856C502.288 477.825 498.973 476.399 496.323 478.066C493.462 479.865 494.853 482.719 496 485L488 486C485.814 480.667 482.415 480.049 477 480L479 486L464 494C459.635 492.673 451.362 490.153 448 494L447 494C440.828 489.482 433.878 484.229 426 484L428 480L409.197 477.271L398 465L398 462L390 462L392 460L392 459C385.623 456.21 374.564 447.847 380 440L377 429L377 428L384 428L384 427L381 426L384 425L384 424L380 424L382 422L382 421L386 390L392 387L395 388L396 384L402 386L402 368C405.935 367.953 408.657 368.046 410 364L420 367L420 357L429 363L432 357L438 362L442 360L432 351C435.292 351.885 438.159 352.925 439 349L446 352L450 351L451 351L446 304L438 306L441 294L439 294z"/>
<path style="fill:#79727c; stroke:none;" d="M372 297L372 301L373 301L372 297M402.333 298.667L402.667 299.333L402.333 298.667z"/>
<path style="fill:#464056; stroke:none;" d="M562.333 299.667L562.667 300.333L562.333 299.667z"/>
<path style="fill:#4a4044; stroke:none;" d="M404 304L404 307L405 307L404 304z"/>
<path style="fill:#79727c; stroke:none;" d="M371.333 307.667L371.667 308.333L371.333 307.667z"/>
<path style="fill:#b8b3bd; stroke:none;" d="M460 307L462 318L463 318L464 307L460 307z"/>
<path style="fill:#695f82; stroke:none;" d="M464 308L464 311L465 311L464 308z"/>
<path style="fill:#5e5d59; stroke:none;" d="M385 311L385 315L386 315L385 311z"/>
<path style="fill:#79727c; stroke:none;" d="M447.333 311.667L447.667 312.333L447.333 311.667z"/>
<path style="fill:#464056; stroke:none;" d="M566.333 311.667L566.667 312.333L566.333 311.667M414 312L414 313L420 313L414 312z"/>
<path style="fill:#79727c; stroke:none;" d="M463 314L463 317L464 317L463 314M448 315L448 321L449 321L448 315z"/>
<path style="fill:#656758; stroke:none;" d="M384.333 316.667L384.667 317.333L384.333 316.667z"/>
<path style="fill:#695f82; stroke:none;" d="M426 316L426 320L427 320L426 316M461 316L462 320L463 320L461 316z"/>
<path style="fill:#464056; stroke:none;" d="M568.333 316.667L568.667 317.333L568.333 316.667z"/>
<path style="fill:#262721; stroke:none;" d="M830 317C825.386 321.612 817.021 332.458 816.147 339.039C815.18 346.332 818.601 353.567 817.714 361C816.188 373.8 811.621 382.68 813 396L810 393L809 393L809 403L812 402C812 410.509 810.838 419.794 811.343 428C811.901 437.045 814.563 446.45 810 455L810 456C815.145 468.632 806.956 492.016 804.051 504.961C802.721 510.889 803.802 515.035 800.781 520.514C797.823 525.877 797.749 532.98 792 536L793 544C786.864 545.239 786.218 564.553 784.056 569.972C783.045 572.505 780.076 572.207 778.833 574.222C777.867 575.79 780.288 575.847 781 576L768 600C768 609.502 766.288 618.435 760 626L761 630C755.231 631.167 753.607 637.99 750.202 642.111C744.355 649.189 735.112 651.247 734 662L712 679L701.518 688.094L678 712L668 715L667 715C666.948 733.752 662.84 748.038 655 765L660 759L662 761C693.205 741.13 720.591 718.048 745.91 691.004C752.469 683.998 759.617 676.009 764.871 668.004C768.897 661.87 773.32 653.413 780 650L780 646L784 646L784 636C790.262 634.152 794.015 627.339 797.201 622C805.332 608.373 817.897 588.31 816 572C822.857 569.544 823.855 554.435 826 548L828 550L829 550L832 536L837 536C843.381 508.166 849.756 480.566 850.961 452C851.586 437.17 848.931 420.909 847.911 406C846.968 392.231 846.049 376.447 843.54 363C842.553 357.71 837.733 348.743 840 344L830 317z"/>
<path style="fill:#534c68; stroke:none;" d="M369 318L369 321L370 321L369 318z"/>
<path style="fill:#4a4044; stroke:none;" d="M383 318L383 323L384 323L383 318z"/>
<path style="fill:#5e5d59; stroke:none;" d="M407 323L407 324L410 324L407 323z"/>
<path style="fill:#38382f; stroke:none;" d="M410 324L410 325L414 325L410 324z"/>
<path style="fill:#4e4e45; stroke:none;" d="M415 325L415 326L423 326L415 325z"/>
<path style="fill:#77786d; stroke:none;" d="M367 326L367 336L368 336L367 326z"/>
<path style="fill:#95958d; stroke:none;" d="M382 326L382 338L383 338L382 326z"/>
<path style="fill:#38382f; stroke:none;" d="M93 328L91 332L91 333C95.3484 338.05 91.2051 346.161 90 352C94.1735 359.604 86.9431 377.382 86.1813 385.996C83.64 414.733 84.7602 443.03 85 472L86 472L86 464L87 464L92 506C96.6157 508.696 96.8737 515.073 98 520L96 516L94 516C94.8781 526.057 99.0019 537.659 102.829 546.985C104.821 551.839 109.309 555.561 107 561L122 592L120 592L128 608L130 606C133.436 617.704 145.095 629.021 152.229 638.985C173.09 668.12 196.675 695.379 224.999 717.271C236.503 726.162 250.658 739.555 266 740C268.963 749.498 285.439 753.078 294 755L292 757L374.985 784.858L400 793L404 790L404 794L448 798L448 794L450 797L458 792L459 792L460 792L474 794L474 793C465.89 788.517 455.456 778.781 446 782L446 779L442 780L444 777C415.348 775.906 388.451 768.758 360.999 761.152C348.104 757.579 331.851 755.133 320.039 749.24C303.309 740.892 285.077 733.131 269.001 723.715C261.668 719.42 257.044 712.516 249 709C247.999 704.022 232.892 695.524 228 693L232 690L210.263 673L178.251 634.433L164.61 624.961L145 590L143 591L141.383 575.996L126.547 540L122 518C127.144 514.112 121.134 501.496 120 496L116 496L112 492C112 484.196 105.272 470.273 110 464L108 434L104 434L107 432C107 412.724 107.068 390.641 112 372L108 372L114 360C109.036 357.021 118.41 339.771 120 335C121.829 329.513 114.294 329.822 115 327C107.378 329.441 100.791 330.924 93 328z"/>
<path style="fill:#4a4044; stroke:none;" d="M574.333 331.667L574.667 332.333L574.333 331.667z"/>
<path style="fill:#5e5d59; stroke:none;" d="M576 336L576 339L577 339L576 336z"/>
<path style="fill:#695f82; stroke:none;" d="M577.333 340.667L577.667 341.333L577.333 340.667z"/>
<path style="fill:#5e5d59; stroke:none;" d="M382 345L382 349L383 349L382 345z"/>
<path style="fill:#534c68; stroke:none;" d="M508.667 345.333L509.333 345.667L508.667 345.333z"/>
<path style="fill:#c7c5b2; stroke:none;" d="M507 346L505 352C508.911 351.348 509.7 349.864 510 346L507 346z"/>
<path style="fill:#5e5d59; stroke:none;" d="M510 346L510 350L511 350L510 346z"/>
<path style="fill:#38382f; stroke:none;" d="M803 348C800.941 351.048 799.772 353.496 803 356L803 348z"/>
<path style="fill:#77786d; stroke:none;" d="M382 349L382 353L383 353L382 349z"/>
<path style="fill:#eaead5; stroke:none;" d="M439 349L432 351L442 360C439.289 359.423 438.605 359.232 438 362L432 357L429 363L420 357L420 367L410 364C408.072 367.498 405.878 367.875 402 368L402 386L396 384L395 388L392 387L386 390L381.977 412.995L382 421L382 422L380 424L384 424L384 425L381 426L384 427L384 428L377 428L377 429L380 440C372.683 446.496 386.122 457.392 392 459L392 460L390 462L398 462L398 465L408.39 477.271L428 480L426 484L447 494L448 494C452.352 490.72 459.002 492.796 464 494L479 486L477 480C482.328 480.129 485.175 481.38 488 486L496 485C495.131 482.515 494.172 479.72 497.166 478.197C499.671 476.922 502.519 478.035 505.026 476.393C513.473 470.861 513.624 464.799 518.562 457.34C520.801 453.957 524.727 452.512 527 449C522.056 444.159 525.795 434.002 520.403 430.024C514.387 425.586 500.378 426.539 493 424.335C479.911 420.425 468.445 408.945 460.8 398C453.856 388.058 452.28 376.665 451.17 365C450.659 359.635 452.167 353.636 449 349L446 352L439 349z"/>
<path style="fill:#534c68; stroke:none;" d="M501 354L507 353C504.318 351.259 502.792 351.305 501 354z"/>
<path style="fill:#79727c; stroke:none;" d="M497.667 352.333L498.333 352.667L497.667 352.333z"/>
<path style="fill:#b8b3bd; stroke:none;" d="M496 353L496 358L501 352L496 353z"/>
<path style="fill:#4e4e45; stroke:none;" d="M346 353L346 354L349 354L346 353z"/>
<path style="fill:#4a4044; stroke:none;" d="M353 353L353 354L357 354L353 353z"/>
<path style="fill:#5e5d59; stroke:none;" d="M342 354L342 355L345 355L342 354z"/>
<path style="fill:#464056; stroke:none;" d="M350 354L350 355L353 355L350 354z"/>
<path style="fill:#695f82; stroke:none;" d="M451 354L451 358L452 358L451 354z"/>
<path style="fill:#534c68; stroke:none;" d="M495 357L495 359L497 359L495 357z"/>
<path style="fill:#adada1; stroke:none;" d="M451 358L451 362L452 362L451 358z"/>
<path style="fill:#5e5d59; stroke:none;" d="M382 359L382 365L383 365L382 359z"/>
<path style="fill:#79727c; stroke:none;" d="M579 359L579 369L580 369L579 359z"/>
<path style="fill:#89887a; stroke:none;" d="M451 362L451 368L452 368L451 362z"/>
<path style="fill:#c7c5b2; stroke:none;" d="M352 364L358 369C357.339 365.186 355.741 364.43 352 364z"/>
<path style="fill:#464056; stroke:none;" d="M358 365L358 368L359 368L358 365z"/>
<path style="fill:#5e5d59; stroke:none;" d="M382.333 368.667L382.667 369.333L382.333 368.667z"/>
<path style="fill:#695f82; stroke:none;" d="M356 369L356 371L358 369L356 369z"/>
<path style="fill:#4a4044; stroke:none;" d="M690 369L690 375L691 375L690 369z"/>
<path style="fill:#89887a; stroke:none;" d="M381 371L381 374L382 374L381 371z"/>
<path style="fill:#79727c; stroke:none;" d="M452 373L452 380L453 380L452 373M380 374L380 377L381 377L380 374z"/>
<path style="fill:#5e5d59; stroke:none;" d="M577 382L577 386L578 386L577 382z"/>
<path style="fill:#695f82; stroke:none;" d="M454.333 384.667L454.667 385.333L454.333 384.667z"/>
<path style="fill:#38382f; stroke:none;" d="M780 435L780 438C785.887 443.441 781.528 449.098 782.17 456C784.089 476.646 777.946 495.814 778 516C772.72 517.709 771.74 523.988 771 529L768 528L770 530C767.574 536.94 766.407 545.545 763.151 551.996C761.44 555.386 758.229 557.699 756.573 561.089C753.469 567.443 755.548 572.336 748 576L738 605C734.383 605.117 731.77 605.181 731 609L721 622L722 624L706.83 641.486L669.08 679L654 690L668 717L678 712C685.487 704.185 694.199 695.143 702.326 688.094C706.04 684.872 711.736 684.52 712 679L734 662C735.841 651.864 744.509 649.642 750.252 642.867C753.751 638.741 755.433 631.895 761 630L760 626C767.409 620.099 768 608.632 768 600C773.614 598.127 777.944 581.696 781 576L778 575L778 574C790.538 570.022 783.219 549.714 793 544L792 536C797.781 534.143 798.026 527.163 800.367 522.184C806.562 509.005 807.759 489.902 809.718 475C810.434 469.558 813.244 460.656 810 456L810 455C815.425 447.84 811.923 436.156 811.568 428C811.205 419.667 812 410.573 812 402L809 403L809 393L810 393L813 396L813 385C807.279 387.948 806.88 393.115 804.022 398.285C797.927 409.311 790.545 428.237 780 435z"/>
<path style="fill:#5e5d59; stroke:none;" d="M311 390L311 398L312 398L311 390z"/>
<path style="fill:#464056; stroke:none;" d="M328.667 392.333L329.333 392.667L328.667 392.333z"/>
<path style="fill:#77786d; stroke:none;" d="M327 393L327 397L328 397L327 393z"/>
<path style="fill:#b8b3bd; stroke:none;" d="M328 393L327 399C331.824 399.739 331.688 396.716 330 393L328 393z"/>
<path style="fill:#695f82; stroke:none;" d="M332.333 396.667L332.667 397.333L332.333 396.667z"/>
<path style="fill:#adada1; stroke:none;" d="M476 399L479 398L476 399z"/>
<path style="fill:#695f82; stroke:none;" d="M479 397L479 398L484 398L479 397z"/>
<path style="fill:#eaead5; stroke:none;" d="M477 398L483 404L483 398L477 398z"/>
<path style="fill:#9e9e8d; stroke:none;" d="M483 398L483 401L484 401L483 398z"/>
<path style="fill:#79727c; stroke:none;" d="M461 399L462 400L461 399z"/>
<path style="fill:#695f82; stroke:none;" d="M483 401C482.883 404.506 483.335 406.064 487 406L484 405L483 401z"/>
<path style="fill:#38382f; stroke:none;" d="M687 403L687 407L688 407L687 403z"/>
<path style="fill:#95958d; stroke:none;" d="M486 406L486 407L493 408L486 406z"/>
<path style="fill:#89887a; stroke:none;" d="M468 407L469 408L468 407z"/>
<path style="fill:#c7c5b2; stroke:none;" d="M488 407L492 410L488 407z"/>
<path style="fill:#89887a; stroke:none;" d="M344.667 408.333L345.333 408.667L344.667 408.333z"/>
<path style="fill:#464056; stroke:none;" d="M492 408L491 411L492 408z"/>
<path style="fill:#5e5d59; stroke:none;" d="M321.667 411.333L322.333 411.667L321.667 411.333z"/>
<path style="fill:#534c68; stroke:none;" d="M336 411L336 412L339 412L336 411z"/>
<path style="fill:#79727c; stroke:none;" d="M333.667 412.333L334.333 412.667L333.667 412.333z"/>
<path style="fill:#89887a; stroke:none;" d="M328 413L328 414L333 414L328 413z"/>
<path style="fill:#695f82; stroke:none;" d="M477 415L478 416L477 415z"/>
<path style="fill:#8d89a8; stroke:none;" d="M510 415L516 417L516 416L510 415z"/>
<path style="fill:#adada1; stroke:none;" d="M511 415L511 416L515 416L511 415z"/>
<path style="fill:#79727c; stroke:none;" d="M489.667 423.333L490.333 423.667L489.667 423.333z"/>
<path style="fill:#4e4e45; stroke:none;" d="M757 431C763.263 430.947 771.863 429.791 774 423C767.583 423.524 760.788 425.44 757 431z"/>
<path style="fill:#695f82; stroke:none;" d="M500.667 426.333L501.333 426.667L500.667 426.333z"/>
<path style="fill:#5e5d59; stroke:none;" d="M514.667 428.333L515.333 428.667L514.667 428.333z"/>
<path style="fill:#89887a; stroke:none;" d="M542.667 428.333L543.333 428.667L542.667 428.333z"/>
<path style="fill:#95958d; stroke:none;" d="M537 429L537 430L541 430L537 429z"/>
<path style="fill:#38382f; stroke:none;" d="M525 430L525 431L530 431L525 430z"/>
<path style="fill:#4e4e45; stroke:none;" d="M712 545L720 554L719 562L716 563L718 565L707.806 577.741L697 592L700 593L696 600L692 600L668 630C661.425 629.869 658.22 637.22 654.551 641.745C648.818 648.815 641.37 652.596 634 657.398C631.772 658.85 621.584 662.289 624 665L618 668L613 670L613 672C622.617 672.001 631.645 672.942 640 678.115C643.817 680.478 651.606 689.921 655.924 689.549C662.104 689.016 672.374 677.317 676.729 672.996C686.895 662.91 697.529 653.169 706.83 642.255C711.952 636.245 716.02 629.226 722 624L721 622L731 609C732.074 605.52 734.581 605.23 738 605L748 576C755.965 573.637 753.919 568.117 756.608 562.039C760.714 552.76 772.747 539.233 768 528L771 529C772.166 523.958 773.206 518.578 778 516L778 501L782 494L783 466L782 449L784 442L781 436C775.01 438.482 762.926 441.489 758.652 446.302C751.53 454.324 750.775 470.04 747.54 480C740.727 500.977 728.599 529.94 712 545z"/>
<path style="fill:#5e5d59; stroke:none;" d="M719 439L719 440L724 442L718 452L720 455L720 456C716.641 460.498 717.486 470.668 719 476L714 478C715.586 485.14 712.215 498.691 704 500C704.205 506.805 705.584 508.701 702 515C706.691 518.018 704.256 523.255 705 528L697 541L698 542C705.18 536.928 707.938 530.07 712.594 523C724.07 505.575 731.678 486.259 736.503 466C737.901 460.131 744.876 447.301 740.806 441.565C737.996 437.604 723.622 439.003 719 439z"/>
<path style="fill:#262721; stroke:none;" d="M755 451L753 459L754 459L755 451z"/>
<path style="fill:#89887a; stroke:none;" d="M556 506L556 507L566 507L556 506z"/>
<path style="fill:#464056; stroke:none;" d="M545 508L545 509L549 509L545 508z"/>
<path style="fill:#656758; stroke:none;" d="M542.667 509.333L543.333 509.667L542.667 509.333M576.667 509.333L577.333 509.667L576.667 509.333z"/>
<path style="fill:#4a4044; stroke:none;" d="M641 510L641 511L644 511L641 510z"/>
<path style="fill:#656758; stroke:none;" d="M536 511L536 512L539 512L536 511z"/>
<path style="fill:#4e4e45; stroke:none;" d="M534.667 512.333L535.333 512.667L534.667 512.333z"/>
<path style="fill:#534c68; stroke:none;" d="M555 517L555 518L562 518L555 517z"/>
<path style="fill:#adada1; stroke:none;" d="M479 569L484 570L485 566L490 566C500.878 568.397 511.159 544.792 518.439 538.318C522.431 534.768 528.042 535.773 532.455 532.209C536.23 529.161 545.268 530.77 543.327 537.089C540.266 547.058 529.205 552.907 528 564C538.798 560.709 545.553 545.275 554 538.148C559.903 533.168 566.234 536.884 567.79 544C568.519 547.331 569.315 550.664 570 554L571 554C570.479 545.811 568.847 538.784 563 533L567 534L567 530L576 531L575 525L579 526C573.71 515.016 556.664 517.126 547 519.926C529.875 524.888 514.997 535.609 500.91 546.04C492.741 552.09 482.817 559.154 479 569z"/>
<path style="fill:#79727c; stroke:none;" d="M563 517L563 518L567 518L563 517z"/>
<path style="fill:#5e5d59; stroke:none;" d="M567.667 518.333L568.333 518.667L567.667 518.333z"/>
<path style="fill:#534c68; stroke:none;" d="M547 519L547 520L550 520L547 519z"/>
<path style="fill:#77786d; stroke:none;" d="M363 525L363 526L374 526L363 525z"/>
<path style="fill:#9e9e8d; stroke:none;" d="M575 525L576 531L567 530L567 534L563 533C567.96 539.854 569.956 545.434 571 554L570 554L570 550L569 550L567 561L574 561L574 560L570 560L570 559L578 560L579 560L580 560L585 556L583 554L588 546L589 546L589 550L590 550C589.552 539.723 586.213 527.068 575 525z"/>
<path style="fill:#38382f; stroke:none;" d="M642 525L641 533L642 533L642 525z"/>
<path style="fill:#695f82; stroke:none;" d="M355 526L355 527L358 527L355 526z"/>
<path style="fill:#79727c; stroke:none;" d="M375 526L375 527L380 527L375 526z"/>
<path style="fill:#4e4e45; stroke:none;" d="M352.667 527.333L353.333 527.667L352.667 527.333z"/>
<path style="fill:#656758; stroke:none;" d="M345 528L345 529L348 529L345 528z"/>
<path style="fill:#5e5d59; stroke:none;" d="M339.667 530.333L340.333 530.667L339.667 530.333M391.667 530.333L392.333 530.667L391.667 530.333z"/>
<path style="fill:#930134; stroke:none;" d="M459 613L462 610L467 610L467 611L464 615L475 610L477 611L502 585L493 609C500.545 603.881 504.896 593.575 509.82 586.17C517.521 574.589 526.341 563.804 533.812 552C536.873 547.163 549.767 535.721 540.811 530.988C536.238 528.572 519.234 536.316 516.015 540.059C501.287 557.183 487.684 575.422 475.122 593.981C470.133 601.351 462.591 603.953 459 613z"/>
<path style="fill:#695f82; stroke:none;" d="M642 530L642 536L643 536L644 530L642 530M360 534L360 535L371 535L360 534z"/>
<path style="fill:#534c68; stroke:none;" d="M356 535L356 536L359 536L356 535z"/>
<path style="fill:#adada1; stroke:none;" d="M344 541C352.315 541.357 362.589 540.876 368 548C375.854 547.078 376.076 551.622 382.34 553.397C390.886 555.818 396.848 554.925 405 553C397.474 538.945 373.59 533.333 359 535.428C354.074 536.135 346.834 536.578 344 541z"/>
<path style="fill:#930134; stroke:none;" d="M513 591L540 566C533.232 578.386 522.647 586.979 522 602L527 598L528 604L532 604C534.495 599.086 539.291 596.277 542.562 591.946C548.617 583.926 553.926 575.222 559.721 567C562.842 562.571 568.312 557.719 568.682 552C569.205 543.921 563.952 529.853 554 537.318C548.382 541.532 544.297 547.765 539.714 553C530.086 563.996 516.24 576.138 513 591z"/>
<path style="fill:#5e5d59; stroke:none;" d="M376.667 536.333L377.333 536.667L376.667 536.333z"/>
<path style="fill:#77786d; stroke:none;" d="M629 537L630 540L616.5 558.694L616 563C610.887 565.09 609.781 567.672 611 573L610 573L606 566L606 598C616.932 592.268 635.822 574.056 636.775 561C637.329 553.425 633.394 544.477 632 537L629 537z"/>
<path style="fill:#534c68; stroke:none;" d="M384.667 538.333L385.333 538.667L384.667 538.333z"/>
<path style="fill:#ac6d85; stroke:none;" d="M340 543L350 542C346.497 540.431 342.45 539.641 340 543z"/>
<path style="fill:#8f5666; stroke:none;" d="M567 541L567 547L568 547L567 541z"/>
<path style="fill:#930134; stroke:none;" d="M335 544C333.867 556.106 319.599 563.071 314.616 573.424C313.019 576.742 315.789 579.646 314.718 582.996C313.829 585.775 311.188 587.582 310.197 590.286C307.763 596.924 309.342 613.809 320 612.422C326.004 611.641 330.293 603.344 335 600L335 604C340.179 600.329 347.819 605.077 349 598C358.889 601.435 365.524 614.08 365 624C375.6 621.74 375.562 600.199 387 596L369 621L375 626L390 621L390 623C400.942 618.514 408.189 602.991 415.385 594C418.04 590.682 423.176 585.852 424.379 581.739C425.603 577.555 421.27 575.52 418 575C416.602 570.077 411.414 565.649 406.379 569.603C398.573 575.734 396.441 587.001 388 593C395.121 579.047 413.397 567.703 406 552L405 552L384.3 554.603L354 590C359.495 578.201 370.886 569.079 377.807 558C383.06 549.592 374.987 546.723 368 548C363.837 539.746 342.681 540.916 335 544z"/>
<path style="fill:#a94972; stroke:none;" d="M350 542L350 543L361 543L350 542z"/>
<path style="fill:#5e5d59; stroke:none;" d="M589 542L589 545L590 545L589 542z"/>
<path style="fill:#77786d; stroke:none;" d="M303 622L306 621L316 629L335 600C329.502 602.586 326.021 611.015 320 611.954C308.669 613.723 311.85 600.374 310.883 595.004C309.869 589.365 313.801 587.973 315.215 582.996C316.16 579.671 313.665 576.658 315.252 573.424C320.432 562.871 332.162 556.542 336 545C328.162 546.42 322.169 552.959 317.375 559.001C305.505 573.96 293.35 603.454 303 622z"/>
<path style="fill:#5e5d59; stroke:none;" d="M711 545L697 561L697 562C698.351 564.793 696.57 565.811 694 567L690 585C681.513 587.059 684.665 591.278 680.488 596.925C674.499 605.021 667.223 610.241 658 613L660 615L640 627C639.597 632.334 633.568 641.238 629 644C626.939 656.81 617.414 652.463 609.34 656.653C606.79 657.976 606.637 661.553 604.57 663.436C600.992 666.696 595.864 665.678 593 670L580 674L577 673C579.515 684.509 563.259 693.179 565 706L598 678.799L618 668L624 665C622.913 661.862 631.581 659.621 634 658.079C641.307 653.419 648.885 649.465 654.551 642.588C658.156 638.213 661.649 630.347 668 630C675.229 620.04 690.006 613.654 692 600L696 600L700 593L697 592C699.616 584.758 707.385 576.983 711.402 570.568C713.419 567.348 718.008 567.416 716 563L719 562L720 554L711 545z"/>
<path style="fill:#95958d; stroke:none;" d="M588 546C585.551 549.524 583.144 551.7 585 556L580 560L579 560L578 560L570 559L570 560L574 560L574 561L567 558C553.502 568.354 545.848 587.652 535.486 601C529.623 608.553 520.866 617.357 519 627C524.655 624.237 528.506 617.738 532.576 613C545.221 598.278 553.804 577.662 567.47 564.319C574.014 557.929 579.588 566.974 579 573L594 574L591 547L590 547L590 550L589 550L588 546z"/>
<path style="fill:#38382f; stroke:none;" d="M604 549L604 555L605 555L604 549z"/>
<path style="fill:#af8185; stroke:none;" d="M380 552L362 580C370.694 575.932 379.754 562.526 384 554L380 552z"/>
<path style="fill:#4e4e45; stroke:none;" d="M422 552L422 553L425 553L422 552z"/>
<path style="fill:#ac6d85; stroke:none;" d="M401 553L401 554L405 554L401 553z"/>
<path style="fill:#77786d; stroke:none;" d="M427.667 555.333L428.333 555.667L427.667 555.333z"/>
<path style="fill:#656758; stroke:none;" d="M592 615L594 574L592 574L580 596C591.596 600.134 584.002 609.242 579.516 616C572.873 626.01 566.321 636.551 560.487 647.001C557.682 652.024 554.185 655.992 555 662L558 662C562.073 654.04 565.62 643.468 572.376 637.322C576.118 633.917 583.113 636.548 582.898 642.004C582.521 651.597 569.745 661.493 567 671L579 674L580 674L593 670C596.419 666.585 600.976 666.845 604.57 664.062C607.142 662.072 606.999 658.076 610.228 656.796C618.372 653.568 628.023 656.384 629 644C634.087 642.518 639.916 632.145 640 627C645.249 625.693 660.331 619.767 658 613C667.716 610.679 674.106 605.915 680.556 597.834C684.999 592.266 681.882 587.865 690 585L694 567C696.673 566.375 700.199 564.337 697 562L697 561L701 556C691.624 560.147 683.217 567.417 673 569.639C666.576 571.036 653.359 568.082 648.439 571.618C630.821 584.281 617.394 616.132 592 615z"/>
<path style="fill:#9e9e8d; stroke:none;" d="M410 558L406 568C411.828 568.069 415.423 569.539 418 575C423.328 576.51 424.82 579.712 424 585C441.502 585.207 429.562 597.575 426 606L431 605L430 608L433 605C438.306 605.183 440.268 600.966 445 599.661C457.781 596.137 448.624 612.449 447 616C463.936 604.618 486.255 586.745 494 567L490 566L485 566L484 570L479 567L478 567C475.878 572.92 471.913 592.026 466.786 594.968C461.159 598.196 454.239 591.83 450.92 587.985C440.448 575.852 424.225 565.564 410 558z"/>
<path style="fill:#4a4044; stroke:none;" d="M593 559L593 564L594 564L593 559z"/>
<path style="fill:#38382f; stroke:none;" d="M299.333 562.667L299.667 563.333L299.333 562.667z"/>
<path style="fill:#ac6d85; stroke:none;" d="M527 562L505.896 592L495 609L506.116 597L530 565L527 562z"/>
<path style="fill:#930134; stroke:none;" d="M529 633C529.595 629.264 533.432 624.093 537 628C542.354 619.617 549.183 612.192 554.884 604C558.814 598.353 562.603 592.626 566.562 587.001C570.249 581.761 576.989 575.451 578.242 569.015C579.374 563.203 571.579 560.204 567.47 563.603C553.618 575.062 547.033 597.462 535.282 611C531.36 615.518 516.833 629.552 529 633z"/>
<path style="fill:#89887a; stroke:none;" d="M489 632C496.879 630.781 499.663 623.171 504.241 617.576C512.583 607.379 519.514 596.331 527.039 585.41C531.621 578.76 537.095 573.732 540 566C533.583 569.017 529.547 575.554 524.714 580.576C511.555 594.252 493.869 613.476 489 632z"/>
<path style="fill:#997077; stroke:none;" d="M579 566L568 587L581 574L579 566z"/>
<path style="fill:#a94972; stroke:none;" d="M405 567L401 574L402 575C404.444 572.613 406.433 570.312 405 567z"/>
<path style="fill:#75012b; stroke:none;" d="M561 600L565 599L545 632L537 625C532.257 626.542 529.411 627.719 529 633C515.902 626.917 539.727 608.441 543 601L519 627L539 596L532 604L528 604C529.336 601.068 530.814 598.821 527 598L522 602L525 590C517.862 593.953 511.49 607.204 506.474 614C492.877 632.419 476.457 648.636 465.464 669C462.343 674.78 444.79 694.831 456 698L456 694C460.015 695.932 463.877 698.421 467 694L468 694L468 700L480 698L485 699L484 692L488 692C488.012 689.026 487.535 685.508 491 685L491 683L503 677L498 693C505.182 693.792 509.871 685.979 516 693L517 686L521 690L530 687L529 689L535 688C537.254 678.842 546.73 674.509 551.867 666.911C554.479 663.045 554.584 658.119 556.877 654C563.14 642.746 570.294 632.022 577.003 621C580.999 614.435 594.682 599.107 580 596C583.062 590.507 591.163 584.281 591.929 578.001C592.728 571.457 584.855 569.706 580.666 573.148C572.893 579.536 564.435 590.563 561 600z"/>
<path style="fill:#ac6d85; stroke:none;" d="M388 593C394.678 589.858 400.328 581.115 402 574C395.966 576.968 390.124 586.702 388 593z"/>
<path style="fill:#534c68; stroke:none;" d="M435.667 575.333L436.333 575.667L435.667 575.333M459.333 576.667L459.667 577.333L459.333 576.667z"/>
<path style="fill:#a94972; stroke:none;" d="M361 579L354 590C357.512 588.082 363.103 583.157 361 579M517 579L516 583L517 583L517 579z"/>
<path style="fill:#534c68; stroke:none;" d="M471 580L471 584L472 584L471 580z"/>
<path style="fill:#997077; stroke:none;" d="M423 583L385.18 634L371 656C379.671 650.99 385.042 640.224 390.13 632C396.449 621.785 404.58 611.49 412.015 602C415.541 597.499 425.992 589.065 423 583z"/>
<path style="fill:#75012b; stroke:none;" d="M371 656L393 622L390 623L390 621L375 626L369 621L378 611L365 624C366.561 614.407 359.137 600.219 349 598C348.114 606.419 344.071 600 340 600C336.868 600 336.987 604.091 334 602C328.932 612.231 317.821 620.11 314.265 630.999C311.65 639.011 321.139 639.495 325.482 635.442C330.736 630.539 333.988 624.266 340 620C337.681 624.139 334.094 627.402 331.001 631.001C327.524 635.046 323.434 649.467 333.827 643.677C340.701 639.848 344.506 630.727 351 626C348.121 631.671 341.969 637.607 340.847 643.985C340.272 647.258 343.423 650.255 346.715 649.288C354.257 647.072 359.813 634.732 366 630L357.206 642.114L339 664C340.992 672.28 346.096 670.713 352 667C350.108 670.322 346.203 674.086 345.742 677.96C344.976 684.386 353.313 684.212 356.829 681.486C366.477 674.006 374.683 662.029 383 653C379.94 663.372 365.341 671.985 364.647 682.995C364.298 688.518 371.292 691.224 375.24 687.964C386.743 678.465 393.62 663.794 406 655C401.653 664.94 390.231 675.5 391 687L399 692L433 652L422 675L427 676L449.309 644.3L483 606L477 611L475 610L464 615L467 611L467 610L462 610L459 613L477 591L413 664L425 644L421 646C419.662 641.277 416.365 638.948 412 637L436 608L418.525 625.911L394 654C400.44 636.984 415.816 621.12 425.861 605.999C428.91 601.411 438.066 593.21 433.257 587.318C426.562 579.115 417.073 594.718 413.612 599C398.995 617.086 388.604 640.674 371 656z"/>
<path style="fill:#a94972; stroke:none;" d="M499 586L502 588L501 585L499 586z"/>
<path style="fill:#8f5666; stroke:none;" d="M567 585L553 607L561 601L564 603L565 599L561 600C563.204 595.816 569.147 589.586 567 585z"/>
<path style="fill:#89887a; stroke:none;" d="M437 664L440 663L442 669C459.439 654.897 472.036 631.246 484.721 613C490.164 605.171 498.608 596.298 501 587C493.365 589.099 487.56 600.245 482.6 606.089C467.365 624.045 446.085 641.969 437 664z"/>
<path style="fill:#75012b; stroke:none;" d="M513 587C507.933 593.385 501.381 607.645 493 609L494 600C479.241 612.557 469.615 634.842 457.35 650.039C452.388 656.187 447.663 662.31 452 670C454.731 667.849 456.166 666.683 459 669L460 669L501.708 609L518 589L513 591L513 587z"/>
<path style="fill:#4e4e45; stroke:none;" d="M593 590L593 598L594 598L593 590M284 594L284 598L285 598L284 594z"/>
<path style="fill:#5e5d59; stroke:none;" d="M460 595L460 596L468 596L460 595z"/>
<path style="fill:#ac6d85; stroke:none;" d="M374 612C379.562 609.002 384.736 601.847 387 596C380.239 597.938 375.899 605.545 374 612z"/>
<path style="fill:#930134; stroke:none;" d="M412 637L421 646C433.816 639.545 438.453 623.647 448.05 613.714C451.205 610.449 455.433 604.602 450.682 600.603C446.455 597.045 441.228 600.594 438.39 604.019C429.712 614.487 418.685 625.107 412 637z"/>
<path style="fill:#89887a; stroke:none;" d="M561 601C555.659 608.034 527.623 624.163 545 632L563 601L561 601z"/>
<path style="fill:#4a4044; stroke:none;" d="M592 602L592 607L593 607L592 602z"/>
<path style="fill:#89887a; stroke:none;" d="M409 636L410 636L437 605L433 605L430 608L431 605C422.228 605.998 407.009 627.312 409 636z"/>
<path style="fill:#4e4e45; stroke:none;" d="M300 606L300 610L301 610L300 606z"/>
<path style="fill:#895567; stroke:none;" d="M510 607L509 610L510 607z"/>
<path style="fill:#997077; stroke:none;" d="M445 615L425 648C436.38 641.221 449.139 622.35 456 611L445 615z"/>
<path style="fill:#872d50; stroke:none;" d="M499 611L499 615L500 615L499 611z"/>
<path style="fill:#4a4044; stroke:none;" d="M300 612L300 616L301 616L300 612z"/>
<path style="fill:#7b2c49; stroke:none;" d="M419 613L417 618L421 613L419 613z"/>
<path style="fill:#5e5d59; stroke:none;" d="M302 620C303.119 658.706 345.473 685.726 372.711 707.133C384.386 716.309 393.048 729.001 408 733L412 738L446 676C436.172 680.42 426.78 692.694 419.745 700.714C417.169 703.652 412.566 710.655 408.055 710.079C400.195 709.075 405.372 698.585 407.262 695C414.625 681.036 428.866 667.213 433 652C418.583 663.626 406.691 682.011 394.676 696.169C392.113 699.188 383.391 712.149 379.237 703.851C377.156 699.695 382.327 693.293 384.523 690C391.519 679.51 402.698 667.246 406 655C392.95 661.137 385.636 677.754 375.24 687.262C371.619 690.573 364.837 688.5 365.133 682.995C365.727 671.939 381.198 663.96 383 653C372.702 660.876 366.219 673.914 355.91 681.481C352.238 684.178 344.677 682.914 346.532 676.985C347.643 673.434 350.64 670.534 352 667C345.683 669.736 342.052 671.784 339 664L357.924 642.114L366 630C358.169 633.965 355.023 643.816 347.576 648.288C337.847 654.129 344.522 637.561 346.089 635C347.941 631.972 349.864 629.376 351 626C345.465 628.683 325.907 656.544 326 636C315.9 639.331 314.127 635.856 315 626L306 621L302 620z"/>
<path style="fill:#8f5666; stroke:none;" d="M335 625L340 620L335 625z"/>
<path style="fill:#872d50; stroke:none;" d="M334 624L326 637L327 637L336 625L334 624z"/>
<path style="fill:#4a4044; stroke:none;" d="M303 627L303 631L304 631L303 627z"/>
<path style="fill:#79727c; stroke:none;" d="M489 628L460.461 669.718L445 696L458.414 679L492 632L489 631L489 628z"/>
<path style="fill:#89887a; stroke:none;" d="M511 646L523 629C515.491 628.295 500.453 642.757 511 646z"/>
<path style="fill:#8f5666; stroke:none;" d="M407 633L399 646C404.009 644.527 410.253 638.301 407 633z"/>
<path style="fill:#52011e; stroke:none;" d="M532 701L538 698L510.505 741L492 766C496.467 751.861 505.206 735.92 514.018 724.005C519.755 716.248 526.934 712.878 530 703L527 704L543 677C538.225 679.006 535.719 682.913 535 688L529 689L530 687L521 690L517 686L516 693L511 688L512.097 694.005L504.228 703L489 722L509 690L498 693L499 685L498 685L490 696L499 680L491 683L491 685L489 684L488 692L484 692L485 699L480 698L468 700L468 694L467 694C463.093 697.613 460.444 695.48 456 694L456 698C446.163 693.454 460.186 680.154 463 674L445 696L463 665L460 669L459 669C456.615 665.463 454.449 667.306 452 670L451 660C437.162 668.006 431.833 689.263 417 696L429 674L427 676L422 675L424 669C416.051 675.397 408.066 690.472 404.356 700C402.893 703.756 403.212 711.109 409.019 710.534C413.876 710.053 417.526 704.008 420.514 700.714C428.116 692.336 436.572 682.292 446 676C437.162 692.78 425.389 707.995 416.97 725C413.656 731.693 416.087 743.717 424.486 734.852C427.983 731.161 430.321 726.527 434 723L433 731L440 728C438.745 731.74 435.964 735.919 436.333 739.982C436.854 745.73 443.601 746.848 447.387 743.346C458.403 733.16 463.429 717.508 476 708C471.195 716.029 466.534 723.972 461.677 732C460.063 734.666 456.856 737.695 456.867 741C456.882 746.144 463.975 761.559 470.897 757.957C475.551 755.535 478.463 748.148 481.427 744C488.399 734.245 496.233 723.105 506 716C498.78 730.111 491.076 743.716 484.128 758C481.558 763.283 476.178 770.839 476.64 776.96C477.01 781.869 483.051 784.522 487 786L512 755L509 766L514 765L510 778C519.379 775.554 525.182 762.767 529.999 755C541.559 736.362 553.516 718.02 564.427 699C568.206 692.414 575.913 685.316 577.852 678.004C579.631 671.291 571.57 670.019 567 671C570.585 662.446 583.127 651.146 583.407 642.004C583.622 634.99 574.712 633.66 570.877 638.148C562.057 648.468 557.215 662.626 549.757 674C544.024 682.743 535.23 690.88 532 701z"/>
<path style="fill:#895567; stroke:none;" d="M425 644L413 664L427 647L425 648L425 647L426 645L425 644z"/>
<path style="fill:#872d50; stroke:none;" d="M398 645L394 654L401 646L398 645z"/>
<path style="fill:#4e4e45; stroke:none;" d="M554 660C551.58 675.967 531.239 687.819 527 704L530 703C526.141 711.53 520.364 715.142 514.75 722.054C505.825 733.043 494.687 752.057 492 766C500.394 761.192 504.175 751.771 509.182 744C518.761 729.134 531.7 714.645 538 698L532 701L557 662L554 660z"/>
<path style="fill:#656758; stroke:none;" d="M417 696C427.188 693.16 443.096 673.218 440 663C430.049 666.684 420.617 686.443 417 696z"/>
<path style="fill:#7b2c49; stroke:none;" d="M488 664L482 675C486.508 673.538 488.94 668.434 490 664L488 664z"/>
<path style="fill:#52011e; stroke:none;" d="M392 677C389.185 685.347 380.678 691.235 378.593 699.999C376.259 709.816 387.517 705.99 391.124 701.71C393.734 698.613 395.857 695.608 399 693C397.562 688.868 395.563 686.285 391 687L394 677L392 677z"/>
<path style="fill:#5e5d59; stroke:none;" d="M502 677C496.965 682.764 491.387 688.225 490 696C494.951 693.434 502.832 682.733 502 677z"/>
<path style="fill:#534c68; stroke:none;" d="M558 687L564 677C559.964 679.166 558.759 682.607 558 687z"/>
<path style="fill:#4a4044; stroke:none;" d="M554 751L558 748L559 748L570 747L570 746L568 744L576 742L576 744C590.115 739.935 605.954 732.378 618 724L618 726C628.529 721.464 639.278 714.453 647 706L648 709C654.482 692.347 626.31 680.642 614 684.171C592.983 690.195 576.416 711.555 565.305 729C561.108 735.588 555.142 743.141 554 751z"/>
<path style="fill:#5e5d59; stroke:none;" d="M509 689L489 722C496.85 719.415 499.985 708.758 505.109 703C507.556 700.25 511.531 697.585 512.824 694.019C513.972 690.854 511.45 689.747 509 689z"/>
<path style="fill:#4a4044; stroke:none;" d="M566 695C558.987 708.328 546.168 722.291 543 737C547.289 735.468 548.955 730.629 551.424 727C557.064 718.712 569.008 705.924 566 695z"/>
<path style="fill:#38382f; stroke:none;" d="M440 728L433 731L434 723C429.358 725.946 416.588 747.364 414 731L413 731L412 738L408 733L402 731C413.026 746.607 437.084 755.953 453 766.053C460.187 770.614 467.588 777.071 476 779L506 716C495.373 721.148 486.591 735.487 480.025 745C477.35 748.876 474.539 755.956 469.961 757.863C464.15 760.284 457.509 745.334 457.48 741C457.459 737.832 460.74 734.608 462.255 732C466.947 723.927 472.374 716.66 476 708C462.099 715.001 457.546 732.156 447.387 742.602C443.95 746.136 437.403 745.676 436.644 739.982C436.124 736.084 439.191 731.777 440 728M542 734C536.434 746.737 523.025 772.47 510 778L514 765L509 766L512 755C501.457 762.427 492.216 774.224 487 786C494.978 791.257 506.423 797.02 516 798C518.792 775.927 532.283 755.896 545 738L545 737L544 734L542 734z"/>
</svg>
